<?xml version="1.0" encoding="utf-8"?>
<!-- Generator: Adobe Illustrator 25.0.1, SVG Export Plug-In . SVG Version: 6.00 Build 0)  -->
<svg version="1.1" id="Layer_1" xmlns="http://www.w3.org/2000/svg" xmlns:xlink="http://www.w3.org/1999/xlink" x="0px" y="0px"
	 viewBox="0 0 763 438" style="enable-background:new 0 0 763 438;" xml:space="preserve">
<style type="text/css">
	.st0{fill-rule:evenodd;clip-rule:evenodd;fill:#FFFFFF;}
	.st1{fill:#FFFFFF;}
	.st2{fill:#231F20;}
	.st3{fill-rule:evenodd;clip-rule:evenodd;fill:#231F20;}
	.st4{fill-rule:evenodd;clip-rule:evenodd;fill:#F48120;}
	.st5{fill:#F48120;}
</style>
<g>
	<path class="st0" d="M88.6,362.4c0.5-0.1,0.8-0.4,0.8-0.7c0-0.1,0-0.2,0-0.3c-0.1-0.5-0.3-1-0.5-1.5c-0.3-0.5-0.8-0.7-1.3-0.6
		c-1.2,0.1-1.9,0.3-2.3,0.6c-0.3,0.3-0.6,0.6-1.1,0.7c-1.9,0.3-3.1,0.4-3.5,0.4c-0.5-0.5-1-0.8-1.7-0.9c-0.2,0-0.6,0.4-1,1.2
		c-4,0.3-8.1,0.9-12,1.9c-3,0.7-4.5,1.9-4.3,3.4c0.1,0.8,0.2,1.6,0.5,2.4c0.6,1.2,1.3,2.3,2.2,3.3c0.1,0.2,0.4,0.4,0.6,0.4
		s0.5-0.1,0.5-0.4v-0.1c0-0.2-0.1-0.3-0.2-0.5c-0.9-1.5-1.4-2.7-1.4-3.4c0.1-0.8,0.6-1.6,1.3-2c0.8-0.6,2.4-1.2,4.8-1.7
		c2.2-0.4,4.4-0.8,6.6-0.9c-0.1,0.4-1,2.8-2.7,7.1c-1.4,3.8-2.4,6.4-2.8,7.6c-0.2,0-0.4-0.1-0.6-0.1s-0.3-0.1-0.5-0.1
		c-0.3,0-0.6,0.3-0.9,0.9c-0.7,1.6-1,3.3-1,5c0,1,0,1.4,0,1.2c0,0.3,0.2,0.4,0.5,0.5c0.6,0.2,1.2,0.3,1.8,0.4c0.5,0,0.8-0.5,1.1-1.4
		c0.7-2.9,1.8-6.6,3.4-11c1.1-3.6,2.5-7,4.2-10.4c2.7-0.2,5.3-0.5,7.8-0.8C88,362.5,88.5,362.4,88.6,362.4z"/>
	<path class="st0" d="M97,376c0.5-1.5,0.7-3.1,0.7-4.7c0-0.3-0.1-0.7-0.4-0.9c-0.4-0.1-0.7-0.2-1.1-0.2c-0.3-0.2-0.7-0.4-1.1-0.5
		c-0.3,0-0.7,0.3-1.1,0.8c-2.6,3.1-4.8,6.5-6.7,10.1c0.5-1.7,1.1-3.4,1.7-5.1c0.5-1.4,1.1-2.7,1.8-3.9c0.3-0.3,0.2-0.6-0.2-0.8
		c-0.5-0.3-1-0.4-1.6-0.5c-0.4,0-0.7,0.3-1.1,0.8c-1.2,1.5-2.2,2.7-2.8,3.4c-0.1,0.1-0.2,0.2-0.2,0.4c0,0.2,0.1,0.3,0.4,0.3
		c0.2,0,0.4-0.1,0.5-0.2c0.6-0.7,1.3-1.4,2-2c-1.5,3.6-2.7,7.3-3.6,11c-0.2,0.5,0,1,0.5,1.2l0,0c0.5,0.3,1.1,0.5,1.7,0.7
		c0.3,0,0.7-0.7,1.2-2c1.5-4.2,3.7-8.2,6.7-11.5c0.4-0.5,0.7-0.7,0.8-0.7c0.2,0,0.2,0.1,0.2,0.4c-0.1,1-0.3,1.9-0.6,2.8
		c-0.2,0.4-0.1,0.8,0.3,1.1c0.4,0.3,0.8,0.6,1.3,0.8C96.6,376.7,96.8,376.5,97,376z"/>
	<path class="st0" d="M111.1,370.8c-0.2,0-0.4,0.3-0.6,0.9c-0.1,0.3-0.4,0.9-0.7,1.7c-1,1.8-2.2,3.4-3.6,4.9
		c-1.6,1.9-3.3,3.6-5.2,5.2c-0.5,0.5-1.1,0.8-1.7,0.9c-0.3,0-0.4-0.2-0.4-0.5c0-0.1,0-0.2,0-0.2c0.4-2,1.5-4.3,3.4-6.8
		c1.2-1.8,2.7-3.3,4.5-4.6c0.8-0.4,1.7-0.4,2.5,0c0.1,0,0.2,0.1,0.3,0.1c0.3,0,0.5-0.1,0.5-0.3c0-0.1-0.1-0.2-0.2-0.3
		c-1.4-1.2-2.4-1.8-3-1.8c-0.7,0.1-1.3,0.3-1.8,0.8c-2.2,1.8-4.1,3.9-5.6,6.3c-1.4,2-2.3,4.2-2.8,6.5c0,0.2,0,0.3,0,0.5
		c0,0.7,0.5,1.4,1.1,1.7c0.3,0.3,0.7,0.5,1.2,0.6c0.5-0.1,1-0.3,1.4-0.6c1.5-1.1,2.8-2.3,4.1-3.6c1.9-1.8,3.6-3.8,5.1-5.9
		c-1,2.6-1.8,5.3-2.3,8c-0.1,0.3-0.1,0.6,0,0.8c0.1,0.2,0.3,0.3,0.7,0.6c0.4,0.3,0.9,0.5,1.4,0.6c0.3,0,0.5-0.3,0.6-0.8
		c0.5-1.9,1.4-3.8,2.7-5.3c0.1-0.1,0.2-0.3,0.2-0.4c0-0.2-0.1-0.3-0.3-0.3c-0.3,0-0.5,0.1-0.6,0.3c-0.2,0.2-0.5,0.4-0.7,0.6
		c-0.4,0.4-0.6,0.6-0.8,0.8c0.7-2.8,1.6-5.5,2.7-8.1c0.1-0.2,0.2-0.5,0.2-0.8c0-0.2-0.2-0.4-0.5-0.6
		C112.2,371.2,111.7,370.9,111.1,370.8z"/>
	<path class="st0" d="M131.5,378.6c0-0.2-0.1-0.4-0.3-0.4c-0.1,0-0.3,0.1-0.3,0.2c-0.6,0.8-1.2,1.4-1.6,1.8c0.4-1.2,0.8-2.5,1.1-3.8
		c0.4-1.4,0.6-2.8,0.7-4.3c0-0.8-0.6-1.4-1.8-1.8c-0.3-0.2-0.6-0.4-0.9-0.4c-0.3,0-0.6,0.1-0.9,0.3c-0.9,0.4-2.3,1.6-4.1,3.6
		c-1.6,1.7-3,3.5-4.2,5.5c1.4-3.6,2.3-6.1,2.4-7.5c0.1-0.6-0.5-1.1-1.6-1.4c-0.2-0.4-0.5-0.6-0.9-0.7c-0.3,0-0.5,0.1-0.7,0.3
		c-1,1-1.8,1.9-2.4,2.6c-0.1,0.1-0.2,0.2-0.2,0.3c0,0.1,0.1,0.2,0.3,0.2c0.2,0,0.3-0.1,0.4-0.2c0.7-0.5,1.2-1,1.6-1.3
		s0.6-0.5,0.6-0.5s0.1,0.2,0,0.7c-0.3,2.1-0.7,4.2-1.5,6.2c-0.7,2.1-1.5,4.1-2.5,6.1c-0.1,0.2-0.2,0.3-0.2,0.5
		c0,0.1,0.2,0.2,0.5,0.3c0.5,0.2,1,0.4,1.5,0.5c0.5,0,0.8-0.3,1.2-1c2.3-4.7,5.5-9,9.4-12.5c0.2-0.2,0.5-0.4,0.8-0.5
		c0.3,0,0.4,0.3,0.4,0.8c0.1,1.4-0.2,3.4-1,6c-0.6,2.2-1.4,4.3-2.5,6.2c-0.1,0.2-0.2,0.4-0.3,0.6c0,0.2,0.3,0.4,0.8,0.6
		c0.4,0.2,0.8,0.3,1.1,0.3c0.4,0,0.7-0.3,0.8-0.6c0.2-0.6,0.5-1.1,0.7-1.7c1.4-2.2,2.5-3.8,3.4-5
		C131.5,378.7,131.5,378.7,131.5,378.6z"/>
	<path class="st0" d="M140.3,370.2c-3.2,0.6-4.9,1.7-5,3.3c-0.1,0.7,0.4,2,1.2,3.9c0.9,2,1.4,3.4,1.4,4.2c0,0.4-0.1,0.8-0.3,1.1
		c-0.3,0.6-0.9,1-1.6,1.1c-2,0.3-3.5,0.4-4.5,0.5c-0.7,0.1-1.1,0.3-1.2,0.6c0.1,0.3,0.3,0.5,0.6,0.5l3.1,0.4
		c0.4,0.1,0.9,0.1,1.3,0.1c0.5,0,1-0.2,1.4-0.5c0.3-0.3,0.6-0.7,0.7-1.1c2-0.6,2.9-1.6,2.9-3.1c-0.1-1.1-0.4-2.2-0.8-3.2
		c-0.7-1.9-1.2-3.2-1.3-3.7c-0.1-0.4-0.2-0.8-0.2-1.3c0-0.9,0.8-1.6,2.3-2.2c0.2-0.1,0.3-0.2,0.3-0.4
		C140.8,370.3,140.6,370.2,140.3,370.2z"/>
	<path class="st0" d="M142.9,373.9c0.2-0.2,0.4-0.5,0.4-0.8c0.3-0.9,0.5-1.8,0.5-2.7c0-0.5-0.2-0.8-0.7-0.8
		c-0.5,0.1-0.9,0.2-1.4,0.5c-0.4,0.1-0.6,0.4-0.5,0.9c0,0.9-0.1,1.8-0.4,2.6c0,0.2-0.1,0.4-0.1,0.5c0,0.3,0.1,0.4,0.3,0.4
		c0.3,0,0.7-0.1,1-0.3C142.5,374.2,142.7,374.1,142.9,373.9z"/>
	<path class="st0" d="M156.5,371c0-0.2-0.2-0.3-0.5-0.3c-0.6,0-2.1-0.2-4.4-0.5c3.1-7.7,5.4-11.9,6.8-12.7c0.4-0.2,0.8-0.3,1.3-0.3
		c0.8,0,1.5,0.2,2.2,0.6c0.1,0.1,0.3,0.1,0.5,0.1c0.4,0,0.5-0.1,0.5-0.4s-0.1-0.3-0.3-0.5c-2.2-1.4-3.8-2.1-4.7-2.1
		c-1,0-2,0.9-3.1,2.7c-1.3,2.1-3.1,6.2-5.5,12.1c-0.1,0.3-0.5,0.5-1.1,0.6c-0.7,0.1-1.3,0.3-2,0.4c-0.5,0.1-0.7,0.2-0.7,0.4
		c0.1,0.2,0.1,0.4,0.2,0.6c0.1,0.2,0.4,0.4,0.6,0.4c0.2,0,0.9,0,2-0.1c-2.6,6.8-4.7,13.8-6.4,20.9c-0.1,0.7,0.3,1.3,1.2,1.7
		c0.5,0.3,1,0.5,1.5,0.6c0.2,0,0.2-0.1,0.2-0.3c0-0.2,0-0.4-0.1-0.6c0-0.2-0.1-0.4-0.1-0.6c0.2-2.6,0.6-5.1,1.3-7.6
		c1.3-4.8,2.8-9.6,4.6-14.3c1.7-0.1,3.4-0.2,5.1-0.5C156.3,371.4,156.5,371.3,156.5,371z"/>
	<path class="st0" d="M166.5,370.3c-0.4,0-0.7,0.1-1.1,0.2c-0.9,0.3-1.6,0.6-1.9,0.7c-1.1-0.9-1.9-1.3-2.4-1.3
		c-0.5,0.1-1,0.4-1.4,0.8c-1.5,1.6-2.6,3.6-3.4,5.7c-0.8,1.8-1.4,3.7-1.6,5.6c-0.1,1.1,0.4,2.2,1.3,2.8c1,0.7,2.1,1.1,3.3,1.1
		c0.5,0.1,1.1,0.2,1.7,0.3c1.1,0,2.2-0.5,3-1.3c1.9-1.9,3.2-4.3,4-6.8c0.5-1.4,0.8-2.9,0.9-4.5c0-0.7-0.2-1.4-0.6-1.9
		C167.7,370.7,167.1,370.3,166.5,370.3z M166.5,374.1c-0.3,2.1-0.9,4.2-1.9,6.1c-1,2.2-2.2,3.6-3.4,4.3c-0.5,0.3-1.1,0.5-1.8,0.6
		c-1.4,0.1-2-0.9-2-2.9c0-0.7,0.1-1.3,0.2-1.9c0.3-1.2,0.7-2.4,1.2-3.6c0.6-1.4,1.3-2.7,2.3-3.9c0.1,0.2,0.2,0.4,0.3,0.4
		c0.2-0.1,0.5-0.1,0.7-0.2l3.3-1.2c0.2,0,0.4-0.1,0.6-0.1c0.4,0,0.6,0.3,0.6,0.8C166.7,372.7,166.6,373.3,166.5,374.1L166.5,374.1z"
		/>
	<path class="st0" d="M183.8,370.4c-0.4-0.1-0.7-0.2-1.1-0.2c-0.3-0.2-0.7-0.4-1.1-0.5c-0.3,0-0.7,0.3-1.1,0.8
		c-2.6,3.1-4.8,6.5-6.7,10.1c0.5-1.7,1.1-3.4,1.7-5.1c0.5-1.4,1.1-2.7,1.8-3.9c0.3-0.3,0.2-0.6-0.2-0.8c-0.5-0.3-1-0.4-1.6-0.5
		c-0.4,0-0.7,0.3-1.1,0.8c-1.2,1.5-2.1,2.7-2.8,3.4c-0.1,0.1-0.2,0.2-0.2,0.4c0,0.2,0.1,0.3,0.4,0.3c0.2,0,0.4-0.1,0.5-0.2
		c0.6-0.7,1.3-1.4,2-2c-1.5,3.6-2.7,7.3-3.7,11.1c-0.2,0.5,0,1,0.5,1.3l0,0c0.5,0.3,1.1,0.5,1.7,0.7c0.3,0,0.7-0.7,1.2-2
		c1.5-4.2,3.7-8.2,6.7-11.5c0.4-0.5,0.7-0.7,0.8-0.7s0.2,0.1,0.2,0.4c-0.1,1-0.3,1.9-0.6,2.8c-0.2,0.4-0.1,0.8,0.3,1.1
		c0.4,0.3,0.8,0.6,1.3,0.8c0.3,0,0.5-0.2,0.6-0.7c0.5-1.5,0.8-3.1,0.8-4.7C184.2,370.9,184.1,370.6,183.8,370.4z"/>
	<path class="st0" d="M209.8,379.1c-0.5,0.7-1.1,1.3-1.7,1.9c1.3-2.8,2.1-5.8,2.2-8.8c0.1-0.9-0.5-1.7-1.3-1.8c-0.1,0-0.2,0-0.3,0
		c-0.4-0.4-1-0.7-1.6-0.8c-0.4,0-0.7,0.1-0.9,0.4c-2.9,2.6-5.5,5.5-7.7,8.7c0.7-2.2,1.1-4.5,1-6.9c0-0.4-0.1-0.8-0.3-1.1
		c-0.4-0.3-0.7-0.5-1.2-0.6c-0.4-0.3-0.9-0.5-1.4-0.5c-0.3,0-0.6,0.1-0.9,0.4c-2.2,1.7-4.5,4.6-7.1,8.6c0.8-2.2,1.3-4.5,1.7-6.8
		c0-0.1,0-0.2,0-0.3c0-0.3-0.2-0.6-0.4-0.7l-1.1-0.3c-0.5-0.4-0.8-0.6-0.9-0.6c-0.2,0-0.5,0.2-0.8,0.5c-0.7,0.9-1.5,1.8-2.4,2.6
		c-0.2,0.1-0.2,0.3-0.2,0.5c0,0.3,0.1,0.4,0.3,0.4s0.4-0.1,0.5-0.3l1.2-1c0.5-0.4,0.9-0.7,1.1-0.9c0.1,1.4-0.3,3.6-1.1,6.7
		c-0.5,2-1.1,3.9-2,5.7c-0.3,0.3-0.5,0.5-0.5,0.6s0.1,0.3,0.3,0.4c0.5,0.4,1.1,0.7,1.8,0.8c0.2,0,0.5-0.3,0.7-0.9
		c1.1-2.6,2.4-5.1,4.1-7.5c1.4-2.2,3.1-4.2,5.1-5.9c0.2-0.2,0.5-0.3,0.7-0.3c0.3,0,0.4,0.2,0.4,0.6c-0.1,4.2-1,8.3-2.8,12
		c-0.1,0.2-0.2,0.5-0.3,0.7c0,0.2,0.1,0.3,0.3,0.4c0.4,0.3,0.9,0.5,1.4,0.6c0.2,0.1,0.4,0.1,0.6,0.1c0.1,0,0.2-0.2,0.3-0.5
		c1.2-3.1,2.9-5.9,4.9-8.5c1.3-1.9,2.9-3.6,4.7-5c0.2-0.2,0.5-0.3,0.9-0.4c0.4,0,0.5,0.2,0.5,0.7c-0.1,2-0.5,3.9-1.1,5.7
		c-0.7,2.4-1.7,4.8-2.8,7.1c-0.1,0.2-0.2,0.4-0.2,0.6s0.5,0.5,1.5,0.8c0.3,0.1,0.6,0.1,0.9,0.1c0.1-0.1,0.2-0.3,0.3-0.4
		c1.9-3.1,3.2-5.2,4.2-6.5c0.1-0.1,0.2-0.3,0.2-0.5s-0.1-0.3-0.3-0.3c0,0,0,0-0.1,0C210.2,378.8,209.9,378.9,209.8,379.1z"/>
	<path class="st0" d="M217.4,370.6c-0.3-0.2-0.6-0.4-1-0.4c-0.3,0-0.5,0.1-0.7,0.3c-0.8,0.7-1.5,1.5-2.2,2.4
		c-0.1,0.1-0.2,0.2-0.2,0.4c0,0.3,0.2,0.3,0.7-0.1l1.3-1.1c0.2-0.2,0.4-0.3,0.7-0.4c0.2,0,0.2,0.3,0.2,0.9c-0.3,2.1-0.8,4.1-1.5,6.1
		c-0.6,2.1-1.5,4.1-2.6,6c-0.1,0.1-0.2,0.3-0.2,0.5c0,0.1,0.2,0.2,0.6,0.4c0.4,0.2,0.9,0.4,1.4,0.4c0.3,0,0.6-0.1,0.7-0.4
		c0.5-1.1,1.2-2.2,1.9-3.2c1.1-1.6,1.7-2.5,1.8-2.6c0.2-0.4,0.2-0.5-0.1-0.5c-0.1,0-0.2,0.1-0.3,0.2c-0.5,0.7-1.1,1.3-1.7,1.8
		c1.1-2.8,2-5.6,2.7-8.5c0.1-0.3,0.1-0.5,0.1-0.8c0-0.4-0.2-0.8-0.5-1C218.1,370.8,217.8,370.7,217.4,370.6z"/>
	<path class="st0" d="M222.3,364.9c0-0.2-0.1-0.4-0.3-0.5c-0.5-0.4-1.1-0.7-1.7-0.8c-0.2,0-0.4,0.2-0.7,0.5
		c-0.8,0.8-1.7,1.5-2.6,2.2c-0.1,0-0.2,0-0.3,0c0,0.1,0,0.1,0,0.2c0.1,0.1,0.1,0.2,0.2,0.2c0.3,0.2,0.7,0.4,1.1,0.4
		c0.8,0.1,1.7-0.1,2.4-0.5C221.6,365.8,222.3,365.2,222.3,364.9z"/>
	<path class="st0" d="M233.2,372c0.2-0.2,0.5-0.4,0.8-0.5c0.3,0,0.4,0.3,0.4,0.8c0,2-0.3,4.1-1,6c-0.6,2.2-1.4,4.3-2.5,6.2
		c-0.1,0.2-0.2,0.4-0.3,0.6c0,0.2,0.3,0.4,0.8,0.6c0.4,0.2,0.8,0.3,1.1,0.3c0.4,0,0.7-0.3,0.8-0.6c0.2-0.6,0.5-1.1,0.8-1.7
		c1.4-2.2,2.5-3.8,3.4-5c0-0.1,0-0.2,0-0.2c0-0.2-0.1-0.4-0.3-0.4c-0.1,0-0.3,0.1-0.3,0.2c-0.6,0.8-1.2,1.4-1.6,1.8
		c0.4-1.2,0.8-2.5,1.1-3.8c0.4-1.4,0.6-2.8,0.7-4.3c0-0.8-0.6-1.4-1.8-1.8c-0.3-0.2-0.6-0.4-0.9-0.4c-0.3,0-0.7,0.1-1,0.3
		c-0.9,0.4-2.3,1.6-4.1,3.6c-1.6,1.7-3,3.5-4.2,5.5c1.5-3.6,2.3-6.1,2.4-7.5c0.1-0.6-0.5-1.1-1.6-1.4c-0.2-0.4-0.5-0.6-0.9-0.7
		c-0.3,0-0.5,0.1-0.7,0.3c-1,1-1.8,1.9-2.4,2.6c-0.1,0.1-0.2,0.2-0.2,0.3c0,0.1,0.1,0.2,0.3,0.2s0.3-0.1,0.4-0.2
		c0.7-0.5,1.2-1,1.6-1.3c0.4-0.3,0.6-0.5,0.6-0.5s0.1,0.2,0.1,0.7c-0.3,2.1-0.8,4.2-1.5,6.2c-0.7,2.1-1.5,4.1-2.5,6.1
		c-0.1,0.2-0.2,0.3-0.2,0.5c0,0.1,0.2,0.2,0.5,0.3c0.5,0.2,1,0.4,1.6,0.5c0.5,0,0.8-0.3,1.2-1C226.1,379.7,229.2,375.5,233.2,372z"
		/>
	<path class="st0" d="M252.8,369.7c-0.3,0-0.4,0.2-0.4,0.7c0,0.7-0.1,1.3-0.4,1.9c-0.8,2.2-2,4.3-3.3,6.2c-1.4,2.1-3.1,4-5.1,5.5
		c-0.3,0.3-0.8,0.5-1.2,0.5c-0.6,0-0.9-0.5-0.9-1.4c0-0.4,0-0.8,0.1-1.2c0.4-2,1.2-3.8,2.3-5.5c0.9-1.5,2-2.8,3.3-3.9
		c0.5-0.4,1-0.6,1.6-0.6c0.4,0,0.9,0.1,1.3,0.3c0.2,0.1,0.5,0.2,0.7,0.2c0.4,0,0.5-0.1,0.5-0.3c0-0.2-0.1-0.4-0.3-0.5
		c-1.1-0.8-1.6-1.3-1.7-1.3c-0.5-0.3-1-0.5-1.6-0.6c-0.8,0.1-1.6,0.4-2.2,1c-1.7,1.5-3.1,3.4-4.2,5.4c-1.4,2.5-2.1,4.5-2.2,6.2
		c-0.1,1.3,0.7,2.5,2,2.9c0.6,0.4,1.2,0.7,1.9,0.8c0.7-0.1,1.4-0.4,1.9-1c1.8-1.6,3.9-4.2,6.3-7.8c-4,15.3-8.9,22.9-14.8,22.9
		c-1.9,0-4-0.9-6.3-2.6c-0.2-0.1-0.4-0.2-0.6-0.2c-0.4,0-0.6,0.2-0.6,0.6c0,0.3,0.2,0.6,0.4,0.7c3,2.5,5.7,3.7,8.3,3.7
		c7.1,0,12.8-10.1,17.2-30.2c0.2-0.8,0-1.4-0.4-1.7C254,370.1,253.4,369.8,252.8,369.7z"/>
	<path class="st0" d="M289.6,364.7c0.6,0.2,1.3,0.2,1.9-0.1l0.8-0.6c0.2-0.2,0.3-0.4,0.3-0.7c0-0.4-0.1-0.8-0.2-1.2
		c-0.1-0.4-0.3-0.6-0.6-0.6c-0.2,0-0.4,0.1-0.5,0.3c-0.3,0.5-0.9,0.8-1.6,0.6c-5.1-1-7.9-1.6-8.5-1.7c0.1-0.2,0.2-0.4,0.2-0.7
		c0-0.2-0.1-0.3-0.3-0.3c-0.6,0.1-1.1,0.4-1.6,0.7c-2.3-0.4-4.6-0.7-6.9-0.8c-2.1,0-3.3,0.6-3.7,1.7c-0.3,0.8-0.4,1.6-0.4,2.4
		c0.1,1.5,0.4,3,0.9,4.4c0.1,0.3,0.3,0.5,0.6,0.5c0.4,0,0.5-0.2,0.4-0.7c-0.3-0.9-0.4-1.8-0.5-2.8c0-1.7,0.8-2.6,2.4-2.8
		c0.7-0.1,1.3-0.1,2-0.1c1.5,0.1,3.1,0.2,4.6,0.5c-1,3.5-1.8,6.3-2.5,8.5c-0.3,0.1-0.5,0.1-0.7,0.2c-1.1,0.2-1.7,0.6-1.7,1.1
		c0,0.3,0.2,0.7,0.3,1c0.4,0.7,0.6,1.1,0.7,1.4c-0.9,2.5-2.1,5-3.5,7.3c-1.3,0-2.5,0.1-3.7,0.3c-0.6,0.2-0.9,0.5-0.9,1
		c0,0.1,0.1,0.8,0.4,2c0.1,0.3,0.2,0.5,0.5,0.5s1.1-0.5,2.3-1.4c1.8-0.1,3.5-0.2,5-0.2c3.5,0,7,0.3,10.4,1.1
		c0.8,0.2,1.2,0.3,1.2,0.3c0.3,0,0.6-0.1,0.8-0.3c0.3-0.2,0.6-0.4,0.9-0.6s0.5-0.5,0.4-0.8c-0.2-0.9-0.4-1.6-0.6-2.2
		c-0.1-0.3-0.4-0.5-0.7-0.4c-0.2,0-0.3,0.2-0.4,0.7c0,0.4-0.4,0.6-0.7,0.6h-0.1c-5.5-0.4-9.4-0.6-11.8-0.6c-0.6,0-1.1,0-1.6,0
		c0.7-0.4,1.3-0.9,1.8-1.5c0.6-0.8,1-1.7,1.3-2.7l1.7-4.7c2-0.2,3.9-0.2,5.9-0.2c0.5-0.1,0.9,0.2,1.2,0.6c0.2,0.3,0.9,0.4,2.1,0.2
		c1.2-0.2,1.7-0.5,1.7-0.9c0-0.1,0-0.2,0-0.3c-0.1-0.4-0.2-0.9-0.4-1.3c-0.4-0.5-1-0.8-1.6-0.7c-3.8,0.2-6.5,0.3-8.1,0.4
		c0.5-1.8,1.2-4.4,2.2-7.9C283.9,363.6,286.9,364.1,289.6,364.7z"/>
	<path class="st0" d="M305.8,379.9c-0.6,0.7-1.1,1.2-1.5,1.5c1.8-9.4,4.7-17,8.6-22.7c1.1-1.5,2.1-2.3,3-2.3c0.5,0.1,1,0.2,1.5,0.4
		c0.1,0.1,0.3,0.1,0.4,0.1c0.3,0,0.5-0.1,0.5-0.4c0-0.2-0.1-0.3-0.3-0.4l-2.2-1.6c-0.4-0.3-1-0.6-1.6-0.6c-0.4,0-0.8,0.2-1.2,0.5
		c-1.1,0.9-2.4,2.6-3.8,5.2c-2.1,3.8-3.7,7.8-5,11.9c-0.2,0.6-0.4,1.2-0.7,1.7c-1,1.8-2.2,3.4-3.6,4.9c-1.6,1.8-3.3,3.6-5.2,5.2
		c-0.5,0.5-1.1,0.8-1.7,0.9c-0.4,0-0.5-0.2-0.4-0.7c0.3-2,1.4-4.3,3.3-6.8c1.2-1.8,2.7-3.3,4.5-4.6c0.8-0.4,1.7-0.4,2.5,0
		c0.1,0,0.2,0.1,0.3,0.1c0.3,0,0.5-0.1,0.5-0.3c0-0.1-0.1-0.3-0.2-0.3c-1.4-1.2-2.4-1.8-3-1.8c-0.7,0-1.3,0.3-1.8,0.8
		c-2.2,1.8-4,3.9-5.5,6.3c-1.4,2-2.4,4.2-2.9,6.5c0,0.1,0,0.3,0,0.4c0,0.7,0.5,1.3,1.4,1.8c0.3,0.3,0.8,0.5,1.2,0.6
		c0.5-0.1,1-0.3,1.4-0.6c1.4-1,2.7-2.1,3.9-3.4c1.7-1.7,3.3-3.5,4.8-5.3c-0.4,1.4-0.9,3.6-1.5,6.5c-0.1,0.2-0.1,0.5-0.1,0.8
		c0,0.4,0.1,0.7,0.4,1c0.4,0.3,0.8,0.5,1.2,0.8c0.1,0.1,0.3,0.2,0.5,0.2c0.3,0,0.5-0.2,0.6-0.7c0.5-2,1.4-3.9,2.7-5.4
		c0.3-0.4,0.3-0.6-0.1-0.6C306.4,379.3,306.1,379.5,305.8,379.9z"/>
	<path class="st0" d="M325.1,370.9c-0.4-0.2-0.8-0.3-1.2-0.4c-0.3,0-0.5,0.1-0.7,0.2c-0.4,0.2-0.9,1-1.6,2.3c-1,1.7-2.1,3.4-3.4,5
		c-1.4,2.1-3,4.1-4.8,5.9c-0.5,0.5-0.9,0.7-1.1,0.7s-0.4-0.3-0.4-0.8c0.1-2.2,0.6-4.4,1.3-6.4c0.5-1.8,1.3-3.5,2.3-5.1l0.5-0.6
		c0-0.1-0.1-0.2-0.3-0.3c-0.5-0.3-1.1-0.5-1.7-0.6c-0.3,0-0.6,0.2-0.8,0.4c-0.6,0.7-1.1,1.5-1.4,2.3c-0.4,0.7-0.9,1.4-1.4,2
		c-0.2,0.2-0.2,0.4-0.1,0.4c0.1,0.1,0.2,0,0.4-0.1l1.1-0.9c-1.3,2.9-2,5.9-2.2,9c0,0.1,0,0.3,0,0.5c0,0.8,0.5,1.2,1.5,1.4
		c0.4,0.3,0.9,0.4,1.4,0.4s1-0.2,1.4-0.6c2.6-2.7,4.9-5.7,7-8.8c-0.9,2.3-1.6,4.7-2.2,7.2c-0.2,0.5,0,1.1,0.5,1.5s1.1,0.6,1.7,0.7
		c0.3,0,0.5-0.3,0.7-0.9c0.5-1.5,1.1-2.9,1.8-4.3c0-0.1,0.1-0.2,0.1-0.2c0-0.2-0.1-0.4-0.3-0.4c-0.2,0-0.3,0.1-0.3,0.3
		c-0.6,1-1.1,1.7-1.4,2.4c0.8-3.9,2.3-7.6,4.3-11c0.1-0.1,0.1-0.2,0.2-0.2c0.1-0.1,0.2-0.1,0.2-0.2
		C326,371.3,325.7,371.1,325.1,370.9z"/>
	<path class="st0" d="M335.1,375.7c0,0.3,0.4,0.6,1.2,1c0.4,0.3,0.9,0.2,1.1-0.2c0,0,0.1-0.1,0.1-0.2c0.7-1.5,1-3.1,0.9-4.7
		c0-0.7-0.6-1.1-1.7-1.1c-0.6,0-1.2,0.1-1.7,0.3c-0.7-0.4-1.4-0.7-2.2-0.8c-0.5,0.1-1,0.4-1.4,0.8c-2.6,3.2-4.3,7.1-5,11.2
		c-0.1,1.1,0.3,2.1,1.2,2.8c0.9,0.7,2,1.1,3.2,1.1c0.5,0.1,1.1,0.2,1.7,0.3c0.6,0.1,1.1-0.1,1.6-0.5c1.2-1.3,2.3-2.7,3-4.3
		c0.1-0.1,0.1-0.2,0.1-0.4c0-0.2-0.1-0.3-0.3-0.3c-0.2,0-0.5,0.2-0.6,0.4c-2.4,2.7-4.1,4-5.4,4c-1.4,0-2.1-0.9-2.1-2.9
		c0-0.7,0.1-1.3,0.2-1.9c0.3-1.2,0.7-2.4,1.2-3.5c0.6-1.4,1.3-2.7,2.3-3.9c0.7-0.8,1.4-1.2,1.9-1.2c0.1,0,0.2,0,0.3,0
		c0.1,0,0.2,0,0.3,0.1c0.6,0,0.9,0.3,1,0.9c0,1-0.3,1.9-0.7,2.8C335.2,375.5,335.1,375.6,335.1,375.7z"/>
	<path class="st0" d="M352.9,370.8c-0.2,0-0.4,0.3-0.6,0.9c-0.1,0.3-0.4,0.9-0.7,1.7c-1,1.8-2.2,3.4-3.6,4.9
		c-1.6,1.9-3.3,3.6-5.2,5.2c-0.5,0.5-1.1,0.8-1.7,0.9c-0.3,0-0.4-0.2-0.4-0.5c0-0.1,0-0.2,0-0.2c0.4-2,1.5-4.3,3.4-6.8
		c1.2-1.8,2.7-3.3,4.5-4.6c0.8-0.4,1.7-0.4,2.5,0c0.1,0,0.2,0.1,0.3,0.1c0.3,0,0.5-0.1,0.5-0.3c0-0.1-0.1-0.3-0.2-0.3
		c-1.4-1.2-2.4-1.8-3-1.8c-0.7,0-1.3,0.3-1.8,0.8c-2.2,1.8-4,3.9-5.5,6.3c-1.4,2-2.3,4.2-2.8,6.5c0,0.2,0,0.3,0,0.5
		c0,0.7,0.5,1.4,1.1,1.7c0.3,0.3,0.7,0.5,1.2,0.6c0.5-0.1,1-0.3,1.4-0.6c1.5-1.1,2.8-2.3,4.1-3.6c1.9-1.8,3.6-3.8,5.1-5.9
		c-1,2.6-1.8,5.3-2.3,8c-0.1,0.3-0.1,0.6,0,0.8c0.1,0.2,0.3,0.3,0.7,0.6c0.4,0.3,0.9,0.5,1.4,0.6c0.3,0,0.5-0.3,0.6-0.8
		c0.5-1.9,1.4-3.8,2.7-5.3c0.1-0.1,0.2-0.3,0.2-0.4c0-0.2-0.1-0.3-0.3-0.3c-0.3,0-0.5,0.1-0.7,0.3c-0.2,0.2-0.4,0.4-0.7,0.6
		c-0.4,0.4-0.6,0.6-0.8,0.8c0.7-2.8,1.6-5.5,2.7-8.1c0.1-0.2,0.2-0.5,0.2-0.8c0-0.2-0.2-0.4-0.5-0.6
		C353.9,371.2,353.4,370.9,352.9,370.8z"/>
	<path class="st0" d="M363.8,381.7c-2,1.7-3.1,2.5-3.5,2.5c-0.2,0-0.4-0.2-0.4-0.6c0-0.1,0-0.3,0-0.4c0.6-3.9,1.7-7.7,3.2-11.3
		c2.9-0.2,4.5-0.3,4.8-0.3c0.4-0.1,0.6-0.2,0.6-0.5c0-0.4-0.2-0.6-0.7-0.6c-1.1,0.1-2.3,0.1-3.4,0.1c-0.3,0-0.5-0.1-0.6-0.2
		c0-0.1,0-0.2,0.1-0.5c1.2-3.1,2.2-5.2,2.9-6.1c0.8-1,1.4-1.6,2-1.6h0.3c0.1,0,0.2,0,0.3,0c0.3,0,0.4-0.1,0.4-0.2s-0.2-0.5-0.6-0.6
		c-0.7-0.4-1.6-0.7-2.4-0.8c-0.7,0.1-1.3,0.5-1.6,1.1c-0.9,1.2-2.1,3.9-3.6,8.1c-0.4,0.3-0.9,0.5-1.4,0.7c-0.8,0.2-1.3,0.4-1.6,0.4
		c-0.3,0-0.5,0.3-0.4,0.5c0,0.2,0.2,0.4,0.4,0.5l0,0l2.1,0.3c-1.3,3.9-2.4,7.9-3.1,12c0,0.1,0,0.2,0,0.3c0,0.6,0.4,1,1.2,1.1
		c0.4,0.3,0.9,0.6,1.4,0.7c0.4-0.1,0.9-0.3,1.2-0.6c1.2-1.1,2.4-2.2,3.4-3.4c0.1-0.1,0.2-0.3,0.2-0.5c-0.1-0.1-0.2-0.2-0.3-0.2
		C364.2,381.4,364,381.5,363.8,381.7z"/>
	<path class="st0" d="M371.7,370.6c-0.3-0.2-0.6-0.4-1-0.4c-0.3,0-0.5,0.1-0.7,0.3c-0.8,0.7-1.5,1.5-2.2,2.4
		c-0.1,0.1-0.2,0.2-0.2,0.4c0,0.3,0.2,0.3,0.7-0.1l1.3-1.1c0.2-0.2,0.4-0.3,0.7-0.4c0.2,0,0.2,0.3,0.2,0.9c-0.3,2.1-0.8,4.1-1.5,6.1
		c-0.6,2.1-1.5,4.1-2.6,6c-0.1,0.1-0.2,0.3-0.2,0.5c0,0.1,0.2,0.2,0.6,0.4c0.4,0.2,0.9,0.4,1.4,0.4c0.3,0,0.6-0.1,0.7-0.4
		c0.5-1.1,1.2-2.2,1.9-3.2c1.1-1.6,1.7-2.5,1.8-2.6c0.2-0.4,0.2-0.5-0.1-0.5c-0.1,0-0.2,0.1-0.3,0.2c-0.5,0.7-1.1,1.3-1.7,1.8
		c1.1-2.8,2-5.6,2.7-8.5c0.1-0.3,0.1-0.5,0.1-0.8c0-0.4-0.2-0.8-0.5-1C372.5,370.8,372.1,370.7,371.7,370.6z"/>
	<path class="st0" d="M376.6,364.9c0-0.2-0.2-0.4-0.4-0.5c-0.5-0.4-1.1-0.7-1.7-0.8c-0.2,0-0.4,0.2-0.7,0.5
		c-0.8,0.8-1.7,1.5-2.6,2.2c-0.1,0-0.2,0-0.3,0c0,0.1,0,0.1,0,0.2c0.1,0.1,0.1,0.2,0.2,0.2c0.3,0.2,0.7,0.4,1.1,0.4
		c0.8,0.1,1.7-0.1,2.4-0.5C376,365.8,376.6,365.2,376.6,364.9z"/>
	<path class="st0" d="M386.9,370.3c-0.4,0-0.7,0.1-1.1,0.2c-0.9,0.3-1.6,0.6-1.9,0.7c-1.1-0.9-1.9-1.3-2.4-1.3
		c-0.5,0.1-1,0.4-1.4,0.8c-1.5,1.6-2.6,3.6-3.4,5.7c-0.8,1.8-1.4,3.7-1.6,5.6c-0.1,1.1,0.4,2.2,1.3,2.8c1,0.7,2.1,1.1,3.3,1.1
		c0.5,0.1,1.1,0.2,1.7,0.3c1.1,0,2.2-0.5,3-1.3c1.9-1.9,3.2-4.3,4-6.8c0.5-1.4,0.8-2.9,0.9-4.5c0-0.7-0.2-1.4-0.6-1.9
		C388.1,370.7,387.5,370.3,386.9,370.3z M386.9,374.1c-0.3,2.1-0.9,4.2-1.9,6.1c-1,2.2-2.2,3.6-3.4,4.3c-0.5,0.3-1.1,0.5-1.8,0.6
		c-1.4,0.1-2-0.9-2-2.9c0-0.7,0.1-1.3,0.2-1.9c0.3-1.2,0.7-2.4,1.2-3.6c0.5-1.4,1.3-2.7,2.3-3.9c0.1,0.2,0.2,0.4,0.3,0.4
		c0.2-0.1,0.5-0.1,0.7-0.2l3.3-1.2c0.2,0,0.4-0.1,0.6-0.1c0.4,0,0.6,0.3,0.6,0.8C387.1,372.7,387,373.3,386.9,374.1L386.9,374.1z"/>
	<path class="st0" d="M406.7,378.4c-0.6,0.8-1.2,1.4-1.6,1.8c0.4-1.2,0.8-2.5,1.1-3.8c0.4-1.4,0.6-2.8,0.7-4.3
		c0-0.8-0.6-1.4-1.8-1.8c-0.3-0.2-0.6-0.4-0.9-0.4s-0.6,0.1-0.9,0.3c-0.9,0.4-2.3,1.6-4.1,3.6c-1.6,1.7-3,3.5-4.2,5.5
		c1.4-3.6,2.3-6.1,2.4-7.5c0.1-0.6-0.5-1.1-1.6-1.4c-0.2-0.4-0.5-0.6-0.9-0.7c-0.3,0-0.5,0.1-0.7,0.3c-1,1-1.8,1.9-2.4,2.6
		c-0.1,0.1-0.2,0.2-0.2,0.3c0,0.1,0.1,0.2,0.3,0.2c0.2,0,0.3-0.1,0.4-0.2c0.7-0.5,1.2-1,1.6-1.3s0.6-0.5,0.6-0.5s0.1,0.2,0,0.7
		c-0.3,2.1-0.8,4.2-1.5,6.2c-0.7,2.1-1.5,4.1-2.5,6.1c-0.1,0.2-0.2,0.3-0.2,0.5c0,0.1,0.2,0.2,0.5,0.3c0.5,0.3,1.1,0.4,1.6,0.5
		c0.4,0,0.8-0.3,1.2-1c2.3-4.7,5.5-9,9.4-12.5c0.2-0.2,0.5-0.4,0.8-0.5c0.3,0,0.4,0.3,0.4,0.8c0,2-0.3,4.1-1,6
		c-0.6,2.2-1.4,4.3-2.5,6.2c-0.1,0.2-0.2,0.4-0.3,0.6c0,0.2,0.3,0.4,0.8,0.6c0.4,0.2,0.8,0.3,1.1,0.3c0.4,0,0.7-0.3,0.8-0.6
		c0.2-0.6,0.5-1.1,0.8-1.7c1.4-2.2,2.5-3.9,3.4-5c0-0.1,0-0.2,0-0.2c0-0.2-0.1-0.4-0.3-0.4C406.9,378.2,406.7,378.3,406.7,378.4z"/>
	<path class="st0" d="M447,362.4c0.5-0.1,0.8-0.4,0.8-0.7c0-0.1,0-0.2,0-0.3c-0.1-0.5-0.3-1-0.5-1.5c-0.3-0.5-0.8-0.7-1.3-0.6
		c-1.2,0.1-1.9,0.3-2.3,0.6c-0.3,0.3-0.6,0.6-1.1,0.7c-1.9,0.3-3.1,0.4-3.5,0.4c-0.5-0.5-1-0.8-1.7-0.9c-0.2,0-0.6,0.4-1,1.2
		c-4,0.3-8.1,0.9-12,1.9c-3,0.7-4.5,1.9-4.3,3.4c0.1,0.8,0.2,1.6,0.5,2.4c0.6,1.2,1.3,2.3,2.2,3.3c0.1,0.2,0.4,0.4,0.6,0.4
		s0.5-0.1,0.5-0.4v-0.1c0-0.2-0.1-0.3-0.2-0.5c-0.9-1.5-1.4-2.7-1.4-3.4c0.1-0.8,0.6-1.6,1.3-2c0.7-0.6,2.4-1.2,4.8-1.7
		c2.2-0.4,4.4-0.8,6.6-0.9c-0.1,0.4-1,2.8-2.7,7.1c-1.4,3.8-2.4,6.4-2.8,7.6c-0.2,0-0.4-0.1-0.6-0.1s-0.3-0.1-0.5-0.1
		c-0.3,0-0.6,0.3-0.9,0.9c-0.7,1.6-1,3.3-1,5.1c0,1,0,1.4-0.1,1.2c0,0.3,0.2,0.4,0.5,0.5c0.6,0.2,1.2,0.4,1.8,0.4
		c0.5,0,0.8-0.5,1.1-1.4c0.7-2.9,1.8-6.6,3.4-11c1.1-3.6,2.5-7,4.2-10.4c2.7-0.2,5.3-0.5,7.8-0.8C446.4,362.5,446.9,362.4,447,362.4
		z"/>
	<path class="st0" d="M455.4,376c0.5-1.5,0.8-3.1,0.8-4.7c0-0.3-0.1-0.7-0.4-0.9c-0.4-0.1-0.7-0.2-1.1-0.2c-0.3-0.2-0.7-0.4-1.1-0.5
		c-0.3,0-0.7,0.3-1.1,0.8c-2.6,3.1-4.8,6.5-6.7,10.1c0.5-1.7,1.1-3.4,1.7-5.1c0.5-1.4,1.1-2.7,1.8-3.9c0.3-0.3,0.2-0.6-0.2-0.8
		c-0.5-0.3-1-0.4-1.6-0.5c-0.4,0-0.7,0.3-1.1,0.8c-1.2,1.5-2.1,2.7-2.8,3.4c-0.1,0.1-0.2,0.2-0.2,0.4c0,0.2,0.1,0.3,0.4,0.3
		c0.2,0,0.4-0.1,0.5-0.2c0.6-0.7,1.3-1.4,2-2c-1.5,3.6-2.7,7.3-3.7,11c-0.2,0.5,0,1,0.5,1.3l0,0c0.5,0.3,1.1,0.5,1.7,0.7
		c0.3,0,0.7-0.7,1.2-2c1.5-4.2,3.8-8.1,6.7-11.5c0.4-0.5,0.7-0.7,0.8-0.7s0.2,0.1,0.2,0.4c-0.1,1-0.3,1.9-0.6,2.8
		c-0.2,0.4-0.1,0.8,0.3,1.1c0.4,0.3,0.8,0.6,1.3,0.8C455,376.7,455.2,376.5,455.4,376z"/>
	<path class="st0" d="M471,371.5c-0.4-0.4-1-0.6-1.5-0.8c-0.2,0-0.4,0.3-0.6,0.9c-0.1,0.3-0.4,0.9-0.7,1.7c-1,1.8-2.2,3.4-3.6,4.9
		c-1.6,1.9-3.3,3.6-5.2,5.2c-0.5,0.5-1.1,0.8-1.7,0.9c-0.3,0-0.4-0.2-0.4-0.5c0-0.1,0-0.2,0-0.2c0.4-2,1.5-4.3,3.4-6.8
		c1.2-1.8,2.7-3.3,4.5-4.6c0.8-0.4,1.7-0.4,2.5,0c0.1,0,0.2,0.1,0.3,0.1c0.3,0,0.5-0.1,0.5-0.3c0-0.1-0.1-0.3-0.2-0.3
		c-1.4-1.2-2.4-1.8-3-1.8c-0.7,0.1-1.3,0.3-1.8,0.8c-2.2,1.8-4,3.9-5.5,6.3c-1.4,2-2.3,4.2-2.8,6.5c0,0.2,0,0.3,0,0.5
		c0,0.7,0.5,1.4,1.1,1.7c0.3,0.3,0.7,0.5,1.2,0.6c0.5-0.1,1-0.3,1.4-0.6c1.5-1.1,2.8-2.3,4.1-3.6c1.9-1.8,3.6-3.8,5.1-5.9
		c-1,2.6-1.8,5.3-2.3,8c-0.1,0.3-0.1,0.6,0,0.8c0.1,0.2,0.3,0.3,0.7,0.6c0.4,0.3,0.9,0.5,1.4,0.6c0.3,0,0.5-0.3,0.6-0.8
		c0.5-1.9,1.4-3.8,2.7-5.3c0.1-0.1,0.2-0.3,0.2-0.4c0-0.2-0.1-0.3-0.3-0.3c-0.3,0-0.5,0.1-0.6,0.3c-0.2,0.2-0.5,0.4-0.7,0.6
		c-0.4,0.4-0.6,0.6-0.9,0.8c0.7-2.8,1.6-5.5,2.7-8.1c0.1-0.2,0.2-0.5,0.2-0.8C471.5,372,471.4,371.8,471,371.5z"/>
	<path class="st0" d="M489.9,378.6c0-0.2-0.1-0.4-0.3-0.4c-0.1,0-0.3,0.1-0.4,0.2c-0.6,0.8-1.2,1.4-1.6,1.8c0.4-1.2,0.8-2.5,1.1-3.8
		c0.4-1.4,0.6-2.8,0.7-4.3c0-0.8-0.6-1.4-1.8-1.8c-0.3-0.2-0.6-0.4-0.9-0.4s-0.6,0.1-0.9,0.3c-0.9,0.4-2.3,1.6-4.1,3.6
		c-1.6,1.7-3,3.5-4.2,5.5c1.4-3.6,2.3-6.1,2.4-7.5c0.1-0.6-0.5-1.1-1.6-1.4c-0.2-0.4-0.5-0.6-0.9-0.7c-0.3,0-0.5,0.1-0.7,0.3
		c-1,1-1.8,1.9-2.4,2.6c-0.1,0.1-0.2,0.2-0.2,0.3c0,0.1,0.1,0.2,0.3,0.2c0.2,0,0.3-0.1,0.4-0.2c0.7-0.5,1.2-1,1.6-1.3
		s0.6-0.5,0.6-0.5s0.1,0.2,0.1,0.7c-0.3,2.1-0.8,4.2-1.5,6.2c-0.7,2.1-1.5,4.1-2.5,6.1c-0.1,0.2-0.2,0.3-0.2,0.5
		c0,0.1,0.2,0.2,0.5,0.3c0.5,0.2,1,0.4,1.6,0.5c0.4,0,0.8-0.3,1.2-1c2.3-4.7,5.5-9,9.4-12.5c0.2-0.2,0.5-0.4,0.8-0.5
		c0.3,0,0.4,0.3,0.4,0.8c0.1,1.4-0.2,3.4-1,6c-0.6,2.2-1.4,4.3-2.5,6.2c-0.1,0.2-0.2,0.4-0.3,0.6c0,0.2,0.3,0.4,0.8,0.6
		c0.4,0.2,0.7,0.3,1.1,0.3s0.7-0.3,0.8-0.6c0.2-0.6,0.5-1.1,0.7-1.7c1.4-2.2,2.5-3.8,3.4-5C489.9,378.7,489.9,378.6,489.9,378.6z"/>
	<path class="st0" d="M501.3,373.9c0.2-0.2,0.4-0.5,0.4-0.8c0.3-0.9,0.5-1.8,0.5-2.7c0-0.5-0.2-0.8-0.7-0.8
		c-0.5,0.1-0.9,0.2-1.4,0.5c-0.4,0.1-0.6,0.4-0.5,0.9c0,0.9-0.1,1.8-0.4,2.6c-0.1,0.2-0.1,0.4-0.1,0.5c0,0.3,0.1,0.4,0.3,0.4
		c0.3,0,0.7-0.1,1-0.3C500.9,374.2,501.1,374.1,501.3,373.9z"/>
	<path class="st0" d="M498.7,370.2c-3.2,0.6-4.9,1.7-5,3.3c-0.1,0.7,0.4,2,1.2,3.9c0.9,2,1.4,3.4,1.4,4.2c0,0.4-0.1,0.8-0.3,1.1
		c-0.3,0.6-0.9,1-1.6,1.1c-2,0.3-3.5,0.4-4.5,0.5c-0.7,0.1-1.1,0.3-1.2,0.6c0.1,0.3,0.3,0.5,0.6,0.5l3.1,0.4
		c0.4,0.1,0.9,0.1,1.3,0.1c0.5,0,1-0.2,1.4-0.5c0.3-0.3,0.6-0.7,0.7-1.1c2-0.6,2.9-1.6,2.9-3.1c-0.1-1.1-0.4-2.2-0.8-3.2
		c-0.7-1.9-1.2-3.2-1.3-3.7c-0.1-0.4-0.2-0.8-0.2-1.3c0-0.9,0.8-1.6,2.3-2.2c0.2-0.1,0.3-0.2,0.3-0.4
		C499.2,370.3,499,370.2,498.7,370.2z"/>
	<path class="st0" d="M514.9,371c0-0.2-0.2-0.3-0.5-0.3c-0.6,0-2.1-0.2-4.4-0.5c3.1-7.7,5.4-11.9,6.8-12.7c0.4-0.2,0.8-0.3,1.3-0.3
		c0.8,0,1.5,0.2,2.2,0.6c0.1,0.1,0.3,0.1,0.5,0.1c0.4,0,0.5-0.1,0.5-0.4s-0.1-0.3-0.3-0.5c-2.2-1.4-3.8-2.1-4.7-2.1
		c-1,0-2,0.9-3.1,2.7c-1.3,2.1-3.2,6.2-5.5,12.1c-0.1,0.3-0.5,0.5-1.1,0.6c-0.7,0.1-1.3,0.3-2,0.4c-0.5,0.1-0.7,0.2-0.7,0.4
		c0.1,0.2,0.1,0.4,0.2,0.6s0.4,0.4,0.6,0.4s0.9,0,2-0.1c-2.6,6.8-4.7,13.8-6.4,20.9c-0.1,0.7,0.3,1.3,1.2,1.7c0.5,0.3,1,0.5,1.5,0.6
		c0.2,0,0.2-0.1,0.2-0.3c0-0.2,0-0.4-0.1-0.6c0-0.2-0.1-0.4-0.1-0.6c0.2-2.6,0.6-5.1,1.3-7.6c1.3-4.8,2.8-9.6,4.6-14.3
		c1.7-0.1,3.4-0.2,5.1-0.5C514.7,371.4,514.9,371.3,514.9,371z"/>
	<path class="st0" d="M524.9,370.3c-0.4,0-0.7,0.1-1.1,0.2c-0.9,0.3-1.6,0.6-1.9,0.7c-1.1-0.9-1.9-1.3-2.4-1.3
		c-0.5,0.1-1,0.4-1.4,0.8c-1.5,1.6-2.6,3.6-3.4,5.7c-0.8,1.8-1.4,3.7-1.6,5.6c-0.1,1.1,0.4,2.2,1.3,2.8c1,0.7,2.1,1.1,3.3,1.1
		c0.5,0.1,1.1,0.2,1.7,0.3c1.1,0,2.2-0.5,3-1.3c1.9-1.9,3.2-4.3,4-6.8c0.5-1.4,0.8-2.9,0.9-4.5c0-0.7-0.2-1.4-0.6-1.9
		C526.1,370.7,525.5,370.3,524.9,370.3z M524.9,374.1c-0.3,2.1-0.9,4.2-1.9,6.1c-1,2.2-2.2,3.6-3.4,4.3c-0.5,0.3-1.1,0.5-1.8,0.6
		c-1.4,0.1-2-0.9-2-2.9c0-0.7,0.1-1.3,0.2-1.9c0.3-1.2,0.7-2.4,1.2-3.6c0.6-1.4,1.3-2.7,2.3-3.9c0.1,0.2,0.2,0.4,0.3,0.4
		c0.2-0.1,0.5-0.1,0.7-0.2l3.3-1.2c0.2,0,0.4-0.1,0.6-0.1c0.4,0,0.6,0.3,0.6,0.8C525.1,372.7,525,373.3,524.9,374.1L524.9,374.1z"/>
	<path class="st0" d="M542.2,370.4c-0.4-0.1-0.7-0.2-1.1-0.2c-0.3-0.2-0.7-0.4-1.1-0.5c-0.3,0-0.7,0.3-1.1,0.8
		c-2.6,3.1-4.8,6.5-6.7,10.1c0.5-1.7,1.1-3.4,1.7-5.1c0.5-1.4,1.1-2.7,1.8-3.9c0.3-0.3,0.2-0.6-0.2-0.8c-0.5-0.3-1-0.4-1.6-0.5
		c-0.4,0-0.7,0.3-1.1,0.8c-1.2,1.5-2.1,2.7-2.8,3.4c-0.1,0.1-0.2,0.2-0.2,0.4c0,0.2,0.1,0.3,0.4,0.3c0.2,0,0.4-0.1,0.5-0.2
		c0.6-0.7,1.3-1.4,2-2c-1.5,3.6-2.7,7.3-3.7,11.1c-0.2,0.5,0,1,0.5,1.3l0,0c0.5,0.3,1.1,0.5,1.7,0.7c0.3,0,0.7-0.7,1.2-2
		c1.5-4.2,3.7-8.2,6.7-11.5c0.4-0.5,0.7-0.7,0.8-0.7c0.2,0,0.2,0.1,0.2,0.4c-0.1,1-0.3,1.9-0.6,2.8c-0.2,0.4-0.1,0.8,0.3,1.1
		c0.4,0.3,0.8,0.6,1.3,0.8c0.3,0,0.5-0.2,0.6-0.7c0.5-1.5,0.8-3.1,0.8-4.7C542.6,370.9,542.5,370.6,542.2,370.4z"/>
	<path class="st0" d="M568.2,379.1c-0.5,0.7-1.1,1.3-1.7,1.9c1.3-2.8,2.1-5.8,2.2-8.8c0.1-0.9-0.5-1.7-1.3-1.8c-0.1,0-0.2,0-0.2,0
		c-0.4-0.4-1-0.7-1.6-0.8c-0.4,0-0.7,0.1-0.9,0.4c-2.9,2.6-5.5,5.5-7.7,8.7c0.7-2.2,1.1-4.5,1-6.9c0-0.4-0.1-0.8-0.3-1.1
		c-0.4-0.3-0.7-0.5-1.2-0.6c-0.4-0.3-0.9-0.5-1.4-0.5c-0.3,0-0.6,0.1-0.9,0.4c-2.2,1.7-4.6,4.6-7.1,8.6c0.8-2.2,1.3-4.5,1.7-6.8
		c0-0.1,0-0.2,0-0.3c0-0.3-0.2-0.6-0.4-0.7l-1.1-0.3c-0.5-0.4-0.8-0.6-0.9-0.6s-0.5,0.2-0.8,0.5c-0.7,0.9-1.5,1.8-2.4,2.6
		c-0.1,0.1-0.2,0.3-0.2,0.5c0,0.3,0.1,0.4,0.3,0.4s0.4-0.1,0.5-0.3l1.2-1c0.5-0.4,0.9-0.7,1.1-0.9c0.1,1.4-0.3,3.6-1.1,6.7
		c-0.5,2-1.1,3.9-2,5.7c-0.3,0.3-0.5,0.5-0.5,0.6s0.1,0.3,0.3,0.4c0.5,0.4,1.1,0.7,1.8,0.8c0.2,0,0.5-0.3,0.7-0.9
		c1.1-2.6,2.4-5.1,4.1-7.5c1.9-2.8,3.6-4.7,5.1-5.9c0.2-0.2,0.5-0.3,0.7-0.3c0.3,0,0.4,0.2,0.4,0.6c-0.1,4.2-1,8.3-2.8,12
		c-0.1,0.2-0.2,0.5-0.3,0.7c0,0.2,0.1,0.3,0.3,0.4c0.4,0.3,0.9,0.5,1.4,0.6c0.2,0.1,0.4,0.1,0.6,0.1c0.1,0,0.2-0.2,0.3-0.5
		c1.2-3.1,2.9-5.9,5-8.5c1.3-1.9,2.9-3.6,4.7-5.1c0.2-0.2,0.5-0.3,0.9-0.4c0.4,0,0.5,0.2,0.5,0.7c-0.1,2-0.5,3.9-1.1,5.7
		c-0.7,2.4-1.7,4.8-2.8,7.1c-0.1,0.2-0.2,0.4-0.2,0.6s0.5,0.5,1.5,0.8c0.3,0.1,0.6,0.1,0.9,0.1c0.1-0.1,0.2-0.3,0.3-0.4
		c1.9-3.1,3.2-5.2,4.2-6.5c0.1-0.1,0.2-0.3,0.2-0.5s-0.1-0.3-0.3-0.3c0,0,0,0-0.1,0C568.5,378.7,568.3,378.9,568.2,379.1z"/>
	<path class="st0" d="M575.8,370.6c-0.3-0.2-0.6-0.4-1-0.4c-0.3,0-0.5,0.1-0.7,0.3c-0.8,0.7-1.5,1.5-2.2,2.4
		c-0.1,0.1-0.2,0.2-0.2,0.4c0,0.3,0.2,0.3,0.7-0.1l1.3-1.1c0.2-0.2,0.4-0.3,0.7-0.4c0.2,0,0.2,0.3,0.2,0.9c-0.3,2.1-0.8,4.1-1.5,6.1
		c-0.6,2.1-1.5,4.1-2.6,6c-0.1,0.1-0.2,0.3-0.2,0.5c0,0.1,0.2,0.2,0.6,0.4c0.4,0.2,0.9,0.4,1.4,0.4c0.3,0,0.6-0.1,0.7-0.4
		c0.5-1.1,1.2-2.2,1.9-3.2c1.1-1.6,1.7-2.5,1.8-2.6c0.2-0.4,0.2-0.5-0.1-0.5c-0.1,0-0.2,0.1-0.3,0.2c-0.5,0.7-1.1,1.3-1.7,1.8
		c1.1-2.8,2-5.6,2.7-8.5c0.1-0.3,0.1-0.5,0.1-0.8c0-0.4-0.2-0.8-0.5-1C576.6,370.8,576.2,370.7,575.8,370.6z"/>
	<path class="st0" d="M580.6,364.9c0-0.2-0.1-0.4-0.3-0.5c-0.5-0.4-1.1-0.7-1.7-0.8c-0.2,0-0.4,0.2-0.7,0.5
		c-0.8,0.8-1.7,1.5-2.6,2.2c-0.1,0-0.2,0-0.3,0c0,0.1,0,0.1,0,0.2c0.1,0.1,0.1,0.2,0.2,0.2c0.3,0.2,0.7,0.4,1.1,0.4
		c0.8,0.1,1.7-0.1,2.4-0.5C580,365.8,580.6,365.2,580.6,364.9z"/>
	<path class="st0" d="M591.6,372c0.2-0.2,0.5-0.4,0.8-0.5c0.3,0,0.4,0.3,0.4,0.8c0.1,1.4-0.2,3.4-1,6c-0.6,2.2-1.4,4.3-2.5,6.2
		c-0.1,0.2-0.2,0.4-0.3,0.6c0,0.2,0.3,0.4,0.8,0.6c0.4,0.2,0.8,0.3,1.1,0.3c0.4,0,0.7-0.3,0.8-0.6c0.2-0.6,0.5-1.1,0.8-1.7
		c1.4-2.2,2.5-3.8,3.4-5c0-0.1,0-0.2,0-0.2c0-0.2-0.1-0.4-0.3-0.4c-0.1,0-0.3,0.1-0.4,0.2c-0.6,0.8-1.2,1.4-1.6,1.8
		c0.4-1.2,0.8-2.5,1.1-3.8c0.4-1.4,0.6-2.8,0.7-4.3c0-0.8-0.6-1.4-1.8-1.8c-0.3-0.2-0.6-0.4-0.9-0.4c-0.3,0-0.7,0.1-1,0.3
		c-0.9,0.4-2.3,1.6-4.1,3.6c-1.6,1.7-3,3.5-4.2,5.5c1.5-3.6,2.3-6.1,2.4-7.5c0.1-0.6-0.5-1.1-1.6-1.4c-0.2-0.4-0.5-0.6-0.9-0.7
		c-0.3,0-0.5,0.1-0.7,0.3c-1,1-1.8,1.9-2.4,2.6c-0.1,0.1-0.2,0.2-0.2,0.3c0,0.1,0.1,0.2,0.3,0.2s0.3-0.1,0.4-0.2
		c0.7-0.5,1.2-1,1.6-1.3c0.2-0.2,0.4-0.4,0.6-0.5c0.1,0,0.1,0.2,0,0.7c-0.3,2.1-0.8,4.2-1.5,6.2c-0.7,2.1-1.5,4.1-2.5,6.1
		c-0.1,0.2-0.2,0.3-0.2,0.5c0,0.1,0.2,0.2,0.5,0.3c0.5,0.2,1,0.4,1.6,0.5c0.4,0,0.8-0.3,1.2-1C584.4,379.7,587.6,375.5,591.6,372z"
		/>
	<path class="st0" d="M611.2,369.7c-0.3,0-0.4,0.2-0.4,0.7c0,0.7-0.1,1.3-0.4,1.9c-0.8,2.2-2,4.3-3.3,6.2c-1.4,2.1-3.1,4-5.1,5.6
		c-0.3,0.3-0.8,0.5-1.2,0.5c-0.6,0-0.9-0.5-0.9-1.4c0-0.4,0-0.8,0.1-1.2c0.4-1.9,1.2-3.8,2.3-5.5c0.9-1.5,2-2.8,3.3-3.9
		c0.5-0.4,1-0.6,1.6-0.6c0.4,0,0.9,0.1,1.3,0.3c0.2,0.1,0.5,0.2,0.7,0.2c0.4,0,0.5-0.1,0.5-0.3c0-0.2-0.1-0.4-0.3-0.5l-1.7-1.3
		c-0.5-0.3-1-0.5-1.6-0.6c-0.8,0.1-1.6,0.4-2.2,1c-1.7,1.5-3.1,3.4-4.2,5.4c-1.4,2.5-2.1,4.5-2.2,6.2c-0.1,1.3,0.7,2.5,2,2.9
		c0.6,0.4,1.2,0.7,1.9,0.8c0.7-0.1,1.4-0.4,1.9-1c1.8-1.6,3.9-4.2,6.3-7.8c-4,15.3-8.9,22.9-14.8,22.9c-1.9,0-4-0.9-6.3-2.6
		c-0.2-0.1-0.4-0.2-0.6-0.2c-0.4,0-0.6,0.2-0.6,0.6c0,0.3,0.2,0.6,0.4,0.7c3,2.5,5.7,3.7,8.3,3.7c7.1,0,12.8-10.1,17.2-30.2
		c0.2-0.8,0-1.4-0.4-1.7C612.4,370.1,611.8,369.8,611.2,369.7z"/>
	<path class="st0" d="M640.6,361.9c-1.6-0.9-2.7-1.4-3.3-1.4c-0.2,0-0.3,0-0.4,0.2c-1.6-0.4-2.7-0.5-3.2-0.3
		c-1.4,0.6-2.7,1.6-3.8,2.7c-1.4,1.3-2.5,2.8-3.3,4.5c-0.4,0.8-0.7,1.6-0.8,2.4c0,0.7,0.3,1.3,0.8,1.7c0.8,0.6,1.6,1.1,2.6,1.6
		c0.1,0.1,0.3,0.1,0.4,0.1c0.4,0,0.6-0.1,0.6-0.4c0-0.2-0.1-0.3-0.2-0.4l-1-0.9c-0.3-0.3-0.5-0.8-0.5-1.3c0-0.2,0.1-0.5,0.1-0.7
		c0.7-2.1,1.8-3.9,3.3-5.4c1.4-1.4,2.7-2.2,3.8-2.3c0.3,0,0.5-0.1,0.8-0.1c1.4,0,2.2,0.6,2.1,1.9c-0.2,3.9-1.3,8.2-3.5,13.1
		c-2.3,5-4.4,7.5-6.3,7.5c-1.1-0.1-2.2-0.4-3.2-0.9c-0.1,0-0.2-0.1-0.3-0.1c-0.5,0-0.7,0.2-0.7,0.7c0,0.2,0.1,0.3,0.2,0.4
		c2,1.4,3.8,2,5.2,2c2.4,0,4.8-2.7,7.3-8c1.9-3.9,3.3-8,4-12.3C641.5,363.7,641.3,362.3,640.6,361.9z"/>
	<path class="st0" d="M657.2,378.4c-0.6,0.8-1.2,1.4-1.6,1.8c0.4-1.2,0.8-2.5,1.1-3.8c0.4-1.4,0.6-2.8,0.7-4.3
		c0-0.8-0.6-1.4-1.8-1.8c-0.3-0.2-0.6-0.4-0.9-0.4c-0.3,0-0.6,0.1-0.9,0.3c-0.9,0.4-2.3,1.6-4.1,3.6c-1.6,1.7-3,3.5-4.2,5.5
		c1.5-3.6,2.3-6.1,2.4-7.5c0.1-0.6-0.5-1.1-1.6-1.4c-0.2-0.4-0.5-0.6-0.9-0.7c-0.3,0-0.5,0.1-0.7,0.3c-1,1-1.8,1.9-2.4,2.6
		c-0.1,0.1-0.2,0.2-0.2,0.3c0,0.1,0.1,0.2,0.3,0.2s0.3-0.1,0.4-0.2c0.7-0.5,1.2-1,1.6-1.3c0.4-0.3,0.6-0.5,0.6-0.5s0.1,0.2,0,0.7
		c-0.3,2.1-0.8,4.2-1.5,6.2c-0.7,2.1-1.5,4.1-2.5,6.1c-0.1,0.2-0.2,0.3-0.2,0.5c0,0.1,0.2,0.2,0.5,0.3c0.5,0.2,1,0.4,1.6,0.5
		c0.4,0,0.8-0.3,1.2-1c2.3-4.7,5.5-9,9.4-12.5c0.2-0.2,0.5-0.4,0.8-0.5c0.3,0,0.4,0.3,0.4,0.8c0,2-0.3,4.1-1,6
		c-0.6,2.2-1.4,4.3-2.5,6.2c-0.1,0.2-0.2,0.4-0.3,0.6c0,0.2,0.3,0.4,0.8,0.6c0.4,0.2,0.8,0.3,1.1,0.3c0.4,0,0.7-0.3,0.8-0.6
		c0.2-0.6,0.5-1.1,0.8-1.7c1.4-2.2,2.5-3.8,3.4-5c0-0.1,0-0.2,0-0.2c0-0.2-0.1-0.4-0.3-0.4C657.4,378.2,657.3,378.3,657.2,378.4z"/>
	<path class="st0" d="M674.3,379.9c-0.5,0.5-1,1-1.5,1.5c1.8-9.4,4.7-17,8.6-22.7c1.1-1.5,2.1-2.3,2.9-2.3c0.5,0.1,1,0.2,1.5,0.4
		c0.1,0.1,0.3,0.1,0.4,0.1c0.4,0,0.5-0.1,0.5-0.4c0-0.2-0.1-0.3-0.3-0.4l-2.2-1.6c-0.4-0.3-1-0.6-1.6-0.6c-0.4,0-0.8,0.2-1.2,0.5
		c-1.1,0.9-2.4,2.6-3.8,5.2c-2.1,3.8-3.7,7.8-5,11.9c-0.2,0.6-0.4,1.2-0.7,1.7c-1,1.8-2.2,3.4-3.6,4.9c-1.6,1.8-3.3,3.6-5.2,5.2
		c-0.5,0.5-1.1,0.8-1.7,0.9c-0.4,0-0.5-0.2-0.4-0.7c0.3-2,1.4-4.3,3.3-6.8c1.2-1.8,2.7-3.3,4.5-4.6c0.8-0.4,1.7-0.4,2.5,0
		c0.1,0,0.2,0.1,0.3,0.1c0.3,0,0.4-0.1,0.4-0.3c0-0.1-0.1-0.2-0.2-0.3c-1.4-1.2-2.4-1.8-3-1.8c-0.7,0-1.3,0.3-1.8,0.8
		c-2.2,1.8-4,3.9-5.5,6.3c-1.4,2-2.4,4.2-2.9,6.5c0,0.1,0,0.3,0,0.4c0,0.7,0.5,1.3,1.4,1.8c0.3,0.3,0.8,0.5,1.2,0.6
		c0.5-0.1,1-0.3,1.4-0.6c1.4-1,2.7-2.1,3.9-3.4c1.7-1.7,3.3-3.5,4.8-5.3c-0.4,1.4-0.9,3.6-1.5,6.5c-0.1,0.2-0.1,0.5-0.1,0.8
		c0,0.4,0.1,0.7,0.4,1c0.1,0.1,0.5,0.3,1.2,0.8c0.1,0.1,0.3,0.2,0.5,0.2c0.3,0,0.5-0.2,0.6-0.7c0.5-2,1.4-3.9,2.7-5.4
		c0.3-0.4,0.3-0.6-0.1-0.6C675,379.3,674.7,379.5,674.3,379.9z"/>
	<path class="st0" d="M685.2,363.5c-0.2,0-0.4,0.2-0.7,0.5c-0.8,0.8-1.7,1.5-2.6,2.2c-0.1,0-0.2,0-0.3,0c0,0.1,0,0.1,0,0.2
		c0.1,0.1,0.1,0.2,0.2,0.2c0.3,0.2,0.7,0.4,1.1,0.4c0.8,0.1,1.7-0.1,2.4-0.5c1.2-0.8,1.9-1.3,1.9-1.7c0-0.2-0.1-0.4-0.3-0.5
		C686.3,364,685.8,363.7,685.2,363.5z"/>
	<path class="st0" d="M682.3,370.6c-0.3-0.2-0.6-0.4-1-0.4c-0.3,0-0.5,0.1-0.7,0.3c-0.8,0.7-1.5,1.5-2.2,2.4
		c-0.1,0.1-0.2,0.2-0.2,0.4c0,0.3,0.2,0.3,0.7-0.1l1.3-1.1c0.2-0.2,0.4-0.3,0.7-0.4c0.2,0,0.2,0.3,0.2,0.9c-0.3,2.1-0.8,4.1-1.5,6.1
		c-0.6,2.1-1.5,4.1-2.6,6c-0.1,0.1-0.2,0.3-0.2,0.5c0,0.1,0.2,0.2,0.6,0.4c0.4,0.2,0.9,0.4,1.4,0.4c0.3,0,0.6-0.1,0.7-0.4
		c0.5-1.1,1.2-2.2,1.9-3.2c1.1-1.6,1.7-2.5,1.8-2.6c0.2-0.4,0.2-0.5-0.1-0.5c-0.1,0-0.2,0.1-0.3,0.2c-0.5,0.7-1.1,1.3-1.8,1.8
		c1.1-2.8,2-5.6,2.7-8.5c0.1-0.3,0.1-0.5,0.1-0.8c0-0.4-0.1-0.8-0.5-1C683.3,370.9,683,370.8,682.3,370.6z"/>
	<path class="st0" d="M701.4,372.1c0-0.2-0.2-0.4-0.5-0.6c-0.4-0.4-1-0.6-1.5-0.8c-0.2,0-0.4,0.3-0.6,0.9c-0.1,0.3-0.4,0.9-0.7,1.7
		c-1,1.8-2.2,3.4-3.6,4.9c-1.6,1.9-3.3,3.6-5.2,5.2c-0.5,0.5-1.1,0.8-1.7,0.9c-0.3,0-0.4-0.2-0.4-0.5c0-0.1,0-0.2,0-0.2
		c0.4-2,1.5-4.3,3.4-6.8c1.2-1.8,2.7-3.3,4.5-4.6c0.8-0.4,1.7-0.4,2.5,0c0.1,0,0.2,0.1,0.3,0.1c0.3,0,0.5-0.1,0.5-0.3
		c0-0.1-0.1-0.2-0.2-0.3c-1.4-1.2-2.4-1.8-3-1.8c-0.7,0-1.3,0.3-1.8,0.8c-2.2,1.8-4.1,3.9-5.6,6.3c-1.4,2-2.4,4.2-2.8,6.5
		c0,0.2,0,0.3,0,0.5c0,0.7,0.5,1.4,1.1,1.7c0.3,0.3,0.7,0.5,1.2,0.6c0.5-0.1,1-0.3,1.4-0.6c1.5-1.1,2.8-2.3,4.1-3.6
		c1.9-1.8,3.6-3.8,5.1-5.9c-1,2.6-1.8,5.3-2.3,8c-0.1,0.3-0.1,0.6,0,0.8c0.2,0.2,0.4,0.4,0.7,0.6c0.4,0.3,0.9,0.5,1.4,0.6
		c0.3,0,0.5-0.3,0.6-0.8c0.5-1.9,1.4-3.8,2.7-5.3c0.1-0.1,0.2-0.3,0.2-0.4c0-0.2-0.1-0.3-0.3-0.3c-0.3,0-0.5,0.1-0.6,0.3
		c-0.2,0.2-0.4,0.4-0.7,0.6c-0.4,0.4-0.6,0.6-0.9,0.8c0.7-2.8,1.6-5.5,2.7-8.1C701.3,372.7,701.4,372.4,701.4,372.1z"/>
	<ellipse class="st1" cx="179.9" cy="220.4" rx="108.4" ry="108.2"/>
	<path class="st2" d="M179.9,329.6c-60.3,0-109.4-49-109.4-109.3s49.1-109.2,109.4-109.2s109.4,49,109.4,109.3
		S240.2,329.6,179.9,329.6z M179.9,113.2c-59.2,0-107.4,48.1-107.4,107.2s48.2,107.2,107.4,107.2s107.4-48.1,107.4-107.2
		S239.1,113.2,179.9,113.2L179.9,113.2z"/>
	<path class="st0" d="M179.9,136.6c46.3,0.1,83.7,37.6,83.7,83.9s-37.6,83.7-83.9,83.7c-46.2-0.1-83.7-37.6-83.7-83.8
		C96,174.1,133.6,136.6,179.9,136.6z"/>
	<path class="st3" d="M179.9,138.9c45,0.1,81.5,36.6,81.4,81.6s-36.6,81.4-81.6,81.4c-45-0.1-81.4-36.5-81.4-81.5
		C98.3,175.3,134.9,138.9,179.9,138.9z"/>
	<path class="st4" d="M122.5,162.4L109.7,262C90.6,229.9,95.8,188.8,122.5,162.4z"/>
	<path class="st4" d="M113.6,267.9l33-121.9c10.5-4.7,21.8-7.1,33.2-7.1l0,0c6.3,0,12.5,0.7,18.6,2.2l-78,135.2
		C118,273.6,115.7,270.8,113.6,267.9z"/>
	<path class="st4" d="M123.4,279.1l100.1-127.6c14.2,9,25.3,22.1,31.8,37.6L130,284.8C127.7,283.1,125.5,281.1,123.4,279.1z"/>
	<path class="st4" d="M133.5,287.4L261.3,215c0.1,1.8,0.2,3.6,0.2,5.4c0,16.8-5.2,33.2-14.9,46.9L145,294
		C141,292.1,137.1,289.9,133.5,287.4z"/>
	<path class="st4" d="M155.4,298.1l66.9-8.1C202.2,302.2,177.8,305.1,155.4,298.1z"/>
	<path class="st2" d="M179.9,302.9c-45.6,0-82.6-37-82.6-82.5s37.1-82.5,82.6-82.5s82.6,37,82.6,82.5S225.4,302.9,179.9,302.9z
		 M179.9,139.9c-44.4,0-80.6,36.1-80.6,80.4s36.2,80.4,80.6,80.4s80.6-36.1,80.6-80.4S224.3,139.9,179.9,139.9L179.9,139.9z"/>
	<path class="st3" d="M79.5,239.7l-0.2-1.3l11.4-1.7l-0.7-4.8l1.2-0.2l0.9,6.1L79.5,239.7z M77.5,223.8c-0.1-1.8,0.6-3.6,1.9-4.9
		c2.6-2.6,6.9-2.7,9.5-0.1c2.6,2.6,2.7,6.8,0.1,9.5c-1.2,1.3-2.9,2-4.7,2c-1.2,0-2.4-0.3-3.4-0.9C78.8,228.3,77.5,226.1,77.5,223.8
		L77.5,223.8z M78.7,223.7c0,0.9,0.2,1.9,0.7,2.7s1.2,1.5,2,2s1.8,0.7,2.8,0.7c3,0,5.4-2.4,5.4-5.4c0,0,0,0,0-0.1
		c0-1-0.2-1.9-0.7-2.7s-1.2-1.5-2-1.9c-0.8-0.5-1.8-0.7-2.8-0.7s-1.9,0.2-2.7,0.7C79.7,220,78.7,221.8,78.7,223.7L78.7,223.7z
		 M77.9,213.5l0.2-1.4l10.4-2.7l-9.1-5.7l0.2-1.3l11.8,7.4v0.3L77.9,213.5z M80.3,198.7l1.8-7.1l1.2,0.3l-1.5,5.8l3.9,1l1.5-5.7
		l1.2,0.3l-1.5,5.8l4.8,1.3l1.5-5.8l1.2,0.3l-1.8,7L80.3,198.7z M83.2,188.3l11.9,4.5l2.2-5.8l-1.1-0.4l-1.7,4.6l-10.8-4L83.2,188.3
		L83.2,188.3z M86.3,180.6l0.6-1.3l6.1-0.6l-3.4-5.2l0.6-1.3l4.3,6.5l5.5,2.6l-0.5,1.1l-5.5-2.6L86.3,180.6z"/>
	<path class="st3" d="M110.2,147l1.9-1.6c0.7-0.7,1.5-1.2,2.4-1.8c0.6-0.3,1.4-0.4,2.1-0.3c0.7,0.2,1.4,0.6,1.9,1.2
		c0.5,0.6,0.8,1.3,0.8,2s-0.3,1.5-0.7,2.1c-0.7,0.8-1.5,1.6-2.3,2.2l-0.7,0.6l3.8,4.5l-1,0.8L110.2,147z M111.9,147.2l2.8,3.3
		l1.7-1.4c0.5-0.4,1-0.9,1.3-1.4c0.2-0.4,0.3-0.8,0.3-1.2c-0.1-0.4-0.2-0.8-0.5-1.1s-0.6-0.5-1-0.7c-0.4-0.1-0.8-0.1-1.2,0
		c-0.6,0.2-1.1,0.6-1.6,1L111.9,147.2L111.9,147.2z M119.2,139.5l7.3,10.4l1-0.7l-3.4-4.9l0.6-0.4l7.2,2.2l1.3-0.9L126,143
		c0.7-0.5,1.3-1.1,1.8-1.8c0.3-0.5,0.5-1.2,0.5-1.8s-0.3-1.3-0.6-1.8c-0.4-0.6-1.1-1.1-1.8-1.3c-0.7-0.2-1.5-0.1-2.2,0.2
		c-0.9,0.4-1.7,0.9-2.5,1.5L119.2,139.5L119.2,139.5z M121,139.8l1.8-1.3c0.5-0.4,1.1-0.7,1.7-0.9c0.4-0.1,0.8-0.1,1.2,0.1
		c0.4,0.1,0.7,0.4,0.9,0.7c0.2,0.3,0.4,0.7,0.4,1.2c0,0.4-0.1,0.8-0.3,1.2c-0.4,0.5-0.9,0.9-1.4,1.3l-1.8,1.2L121,139.8L121,139.8z
		 M134.7,129.5c1.6-0.9,3.5-1,5.2-0.5c3.5,1.1,5.5,4.9,4.4,8.4c-0.5,1.7-1.8,3.1-3.4,4c-1.6,0.8-3.4,1-5.2,0.4
		c-1.7-0.5-3.1-1.7-3.9-3.3c-0.5-1.1-0.8-2.2-0.7-3.4C131.3,132.7,132.6,130.6,134.7,129.5L134.7,129.5z M135.3,130.6
		c0.9-0.4,1.8-0.6,2.8-0.6c0.9,0,1.9,0.3,2.7,0.8s1.5,1.3,1.9,2.2s0.7,1.8,0.6,2.8c-0.1,0.9-0.4,1.8-0.9,2.6
		c-0.5,0.8-1.3,1.5-2.2,1.9c-2.6,1.3-5.9,0.3-7.2-2.4c-0.5-0.9-0.7-1.8-0.6-2.8C132.5,133.2,133.6,131.5,135.3,130.6L135.3,130.6z
		 M145.4,125.3l6.1-2l0.4,1.2l-4.9,1.6l1.2,3.8l4.9-1.6l0.4,1.2l-4.9,1.6l1.9,5.9l-1.2,0.4L145.4,125.3L145.4,125.3z M154.8,122.4
		l7.2-1.5l0.3,1.2l-5.9,1.2l0.8,3.9l5.8-1.2l0.3,1.2l-5.9,1.2l1,4.9l5.9-1.2l0.2,1.2l-7.1,1.5L154.8,122.4L154.8,122.4z
		 M165.2,130.7l1-0.8c0.9,1.3,1.9,1.9,2.9,1.8c0.4,0,0.8-0.2,1.2-0.4c0.3-0.2,0.6-0.5,0.7-0.9c0.2-0.3,0.2-0.7,0.2-1.1
		c-0.1-0.4-0.3-0.9-0.6-1.2c-0.7-0.7-1.5-1.3-2.4-1.8c-0.8-0.4-1.5-0.9-2.2-1.5c-0.5-0.5-0.8-1.1-0.9-1.8c-0.1-0.5,0-1.1,0.2-1.6
		s0.6-0.9,1-1.2c0.4-0.3,1-0.5,1.5-0.6c0.6-0.1,1.2,0,1.7,0.2c0.7,0.3,1.3,0.8,1.8,1.4l-0.9,0.9c-0.4-0.4-0.9-0.8-1.4-1.1
		c-0.4-0.2-0.7-0.2-1.1-0.2c-0.5,0-0.9,0.3-1.2,0.6c-0.3,0.3-0.4,0.8-0.3,1.2c0,0.3,0.1,0.5,0.3,0.8s0.4,0.5,0.7,0.8
		c0.2,0.1,0.8,0.5,1.8,1.1c0.9,0.5,1.8,1.1,2.5,1.9c0.5,0.5,0.8,1.2,0.9,1.8c0.1,0.9-0.1,1.8-0.7,2.5c-0.6,0.7-1.5,1.2-2.4,1.3
		c-0.7,0.1-1.5,0-2.2-0.4C166.5,132.1,165.8,131.5,165.2,130.7L165.2,130.7z M174.3,129.6l1.1-0.7c0.8,1.4,1.7,2.1,2.7,2.1
		c0.4,0,0.8-0.1,1.2-0.3c0.7-0.4,1.1-1.1,1.1-1.9c0-0.5-0.2-0.9-0.5-1.3c-0.6-0.8-1.4-1.4-2.2-2c-0.7-0.5-1.4-1.1-2-1.7
		c-0.5-0.5-0.7-1.2-0.7-1.9c0-1.1,0.5-2.1,1.5-2.6c0.5-0.3,1-0.4,1.6-0.4s1.2,0.1,1.7,0.4c0.7,0.4,1.2,1,1.7,1.6l-1,0.8
		c-0.3-0.5-0.8-0.9-1.3-1.2c-0.3-0.2-0.7-0.3-1.1-0.3c-0.5,0-0.9,0.2-1.3,0.5c-0.3,0.3-0.5,0.7-0.5,1.2c0,0.3,0.1,0.6,0.2,0.8
		c0.2,0.3,0.4,0.6,0.6,0.8c0.2,0.2,0.7,0.6,1.7,1.2c0.9,0.6,1.7,1.3,2.3,2.2c0.4,0.6,0.6,1.2,0.7,1.9c0,0.9-0.3,1.8-1,2.4
		c-0.7,0.7-1.6,1.1-2.5,1.1c-0.7,0-1.5-0.2-2.1-0.6C175.4,131.2,174.8,130.5,174.3,129.6L174.3,129.6z M185.3,119.4l1.3,0.1
		l-0.9,12.7l-1.3-0.1L185.3,119.4z M196.8,120.3c1.8,0.3,3.4,1.3,4.4,2.7c2.1,3,1.4,7.2-1.6,9.3c-1.5,1-3.3,1.4-5,1.1
		c-1.8-0.3-3.4-1.3-4.4-2.7s-1.4-3.2-1.1-4.9c0.2-1.2,0.7-2.3,1.5-3.2c0.7-0.9,1.7-1.6,2.8-2C194.5,120.2,195.7,120.1,196.8,120.3
		L196.8,120.3z M196.6,121.5c-1.9-0.3-3.8,0.4-5,1.9c-0.6,0.7-1,1.6-1.2,2.6c-0.5,2.9,1.4,5.7,4.3,6.2c0,0,0,0,0.1,0
		c0.9,0.2,1.9,0.1,2.8-0.2c0.9-0.3,1.7-0.9,2.3-1.6s1-1.6,1.2-2.6c0.2-0.9,0.1-1.9-0.2-2.8s-0.9-1.7-1.6-2.3
		C198.5,122.1,197.6,121.7,196.6,121.5L196.6,121.5z M203.8,135l3.9-12.1l0.3,0.1l5,11.9l3-9.3l1.2,0.4l-3.9,12.1L213,138l-5-11.8
		l-3,9.2L203.8,135L203.8,135z M226.5,130.3l-0.3-0.1l-11.2,8.6l1.3,0.6l3.7-2.8l4.9,2.5l-0.1,4.6l1.2,0.6L226.5,130.3L226.5,130.3z
		 M225.2,132.7l-0.2,5.1l-3.9-2L225.2,132.7z M234.3,134.8l1.1,0.7l-6.1,9.8l4.2,2.6l-0.7,1l-5.3-3.3L234.3,134.8z"/>
	<path class="st3" d="M258.5,155.8l0.8,1l-6,4.8c-0.5,0.3-0.9,0.7-1.3,1.1c-0.3,0.3-0.6,0.7-0.7,1.1c-0.1,0.4-0.1,0.9,0,1.4
		s0.3,0.9,0.6,1.3c0.5,0.7,1.3,1,2.2,1.1c0.4,0,0.9-0.1,1.3-0.3c0.6-0.3,1.1-0.7,1.6-1.1l6-4.8l0.8,1l-6,4.8
		c-0.7,0.6-1.5,1.1-2.4,1.5c-0.7,0.3-1.5,0.3-2.3,0.1c-0.9-0.2-1.6-0.7-2.2-1.4c-0.6-0.7-1-1.6-1.1-2.5c-0.1-0.8,0.1-1.7,0.6-2.4
		c0.6-0.7,1.2-1.3,1.9-1.9L258.5,155.8L258.5,155.8z M255.6,173.1l0.7,1.1l8.4-4.8l-4.2,12.1l0.2,0.2l11-6.4l-0.7-1.1l-8.5,4.9
		l4.2-12.2l-0.1-0.2L255.6,173.1L255.6,173.1z M273.3,179.1l0.5,1.2l-11.6,5.4l-0.5-1.2C261.8,184.5,273.3,179.1,273.3,179.1z
		 M275.1,183.2l-10.3,9.3l0.1,0.3l13.9,1.1l-0.5-1.3l-10.7-0.9l8-7.2L275.1,183.2L275.1,183.2z M279.8,197.6l1.4,7.2L280,205
		l-1.1-5.9l-3.9,0.8l1.1,5.9l-1.2,0.2l-1.1-5.9l-4.9,1l1.1,5.9l-1.2,0.2l-1.4-7.1L279.8,197.6L279.8,197.6z M281.6,208.4l0.2,2.5
		c0.1,1,0.1,1.9,0.1,2.9c-0.1,0.7-0.4,1.4-0.9,1.9c-0.5,0.6-1.3,0.9-2,0.9c-0.6,0.1-1.3,0-1.9-0.3s-1-0.7-1.3-1.3
		c-0.4-0.8-0.6-1.6-0.6-2.5l-5.5,5.1l-0.1-1.6l5.5-5.1l-0.1-0.7l-5.9,0.5l-0.1-1.3L281.6,208.4L281.6,208.4z M280.4,209.8l-4.3,0.4
		l0.2,2.2c0,0.6,0.2,1.3,0.4,1.9c0.2,0.4,0.5,0.7,0.9,0.9s0.8,0.3,1.2,0.2c0.4,0,0.8-0.2,1.1-0.4c0.3-0.2,0.6-0.6,0.7-1
		c0.1-0.6,0.1-1.3,0.1-1.9L280.4,209.8L280.4,209.8z M271.9,219l0.6,1.1c-1.4,0.7-2.2,1.6-2.2,2.6c0,0.4,0.1,0.8,0.3,1.2
		c0.4,0.7,1.1,1.2,1.9,1.2c0.5,0,0.9-0.1,1.3-0.4c0.8-0.6,1.5-1.3,2.1-2.2c0.5-0.7,1.1-1.4,1.8-2c0.6-0.4,1.3-0.7,2-0.6
		c0.5,0,1.1,0.1,1.5,0.4c0.5,0.3,0.8,0.7,1.1,1.1c0.3,0.5,0.4,1,0.4,1.6s-0.2,1.2-0.5,1.7c-0.4,0.7-1,1.2-1.7,1.6l-0.8-1.1
		c0.5-0.3,0.9-0.7,1.3-1.2c0.2-0.3,0.3-0.7,0.3-1.1c0-0.5-0.1-0.9-0.5-1.3c-0.3-0.3-0.7-0.5-1.1-0.5c-0.3,0-0.6,0-0.8,0.2
		c-0.3,0.2-0.6,0.4-0.9,0.6c-0.2,0.2-0.6,0.7-1.3,1.6c-0.6,0.9-1.4,1.6-2.2,2.2c-0.6,0.4-1.2,0.6-1.9,0.6c-0.9,0-1.8-0.4-2.4-1.1
		c-0.7-0.7-1-1.6-1-2.6c0-0.7,0.2-1.5,0.7-2.1C270.4,220,271.1,219.4,271.9,219L271.9,219z M282,229.7l-0.1,1.3l-12.7-0.9l0.1-1.3
		L282,229.7z M280.4,233.8l1.2,0.2l-1.2,6.9l-1.2-0.2l0.5-2.8l-11.3-2l0.2-1.3l11.3,2L280.4,233.8L280.4,233.8z M280.2,242.8
		l-0.4,1.4l-5.9,1.8l4.2,4.5l-0.4,1.4l-5.4-5.6l-5.9-1.6l0.3-1.2l5.9,1.6L280.2,242.8z"/>
	<path class="st3" d="M119.2,284.8l1.9,1.6c0.8,0.6,1.5,1.3,2.1,2.1c0.4,0.6,0.7,1.3,0.6,2c-0.1,1.5-1.2,2.8-2.7,3.2
		c-0.7,0.1-1.5,0-2.2-0.4c-0.9-0.6-1.8-1.2-2.6-2l-0.7-0.6l-3.9,4.5l-1-0.8L119.2,284.8L119.2,284.8z M119.4,286.6l-2.8,3.3l1.6,1.4
		c0.5,0.4,1,0.8,1.6,1.1c0.4,0.1,0.8,0.1,1.2,0c0.4-0.1,0.8-0.3,1-0.7c0.3-0.3,0.4-0.7,0.5-1.1s0-0.8-0.2-1.2
		c-0.3-0.5-0.8-1-1.3-1.4L119.4,286.6L119.4,286.6z M126.8,291.2l-4.3,6.4c-0.5,0.7-1,1.5-1.3,2.4c-0.2,0.8-0.2,1.7,0.2,2.4
		c0.4,0.9,1,1.6,1.8,2.1c1.4,1,3.2,0.9,4.6-0.1c0.7-0.6,1.3-1.3,1.8-2.1l4.3-6.4l-1.1-0.7l-4.3,6.4c-0.3,0.6-0.8,1.1-1.2,1.6
		c-0.3,0.3-0.7,0.5-1.1,0.6s-0.8,0.2-1.2,0.1c-0.4-0.1-0.8-0.2-1.2-0.4c-0.4-0.3-0.8-0.7-1-1.1c-0.3-0.4-0.4-0.8-0.4-1.3
		s0.1-0.9,0.3-1.3c0.1-0.2,0.4-0.7,0.9-1.4l4.3-6.4L126.8,291.2L126.8,291.2z M130.5,308.4l5.9-11.3l0.2,0.1l3,12.6l4.5-8.7l1.1,0.6
		l-5.9,11.3l-0.3-0.1l-3-12.4l-4.5,8.5L130.5,308.4z M151.1,303.5l-2.6,8.2c-0.2,0.7-0.5,1.4-0.8,2c-0.2,0.3-0.5,0.5-0.9,0.6
		c-0.3,0.1-0.7,0.1-1,0s-0.5-0.2-0.7-0.4c-0.5-0.4-0.9-0.9-1.3-1.4l-0.9,0.8c0.3,0.6,0.8,1.1,1.3,1.5c0.4,0.3,0.9,0.6,1.4,0.7
		c0.6,0.2,1.2,0.2,1.8,0.1c0.5-0.1,1-0.4,1.4-0.9c0.5-0.8,0.9-1.6,1.1-2.5l2.6-8.2L151.1,303.5L151.1,303.5z M160.4,306.2l2.8,13.8
		l-1.3-0.3l-1-4.5l-5.3-1.3l-2.9,3.6l-1.4-0.3l8.8-11L160.4,306.2L160.4,306.2z M159.6,308.7l-3.2,4l4.2,1L159.6,308.7L159.6,308.7z
		 M167.9,307.5l2.5,0.3c0.8,0.1,1.6,0.3,2.3,0.7c0.5,0.3,0.9,0.7,1.1,1.3c0.2,0.5,0.3,1.1,0.3,1.7c-0.1,0.5-0.3,1.1-0.6,1.5
		c-0.4,0.4-0.8,0.8-1.4,1c0.5,0.2,1,0.6,1.4,1c0.3,0.3,0.5,0.8,0.7,1.2c0.1,0.5,0.2,1,0.1,1.4c-0.1,1-0.6,1.9-1.4,2.4
		c-0.9,0.6-2,0.9-3.1,0.7l-3.5-0.5L167.9,307.5L167.9,307.5z M169,308.9l-0.5,4.1l0.7,0.1c0.7,0.1,1.3,0.1,2,0
		c0.4-0.1,0.8-0.3,1.1-0.6c0.3-0.3,0.5-0.7,0.5-1.1c0.1-0.5-0.1-1.1-0.4-1.4c-0.5-0.4-1.2-0.7-1.9-0.7L169,308.9L169,308.9z
		 M168.3,314.2l-0.6,4.8l1.6,0.2c0.7,0.1,1.4,0.1,2.1,0c0.4-0.1,0.8-0.4,1.1-0.7c0.3-0.3,0.5-0.8,0.6-1.2c0.1-0.5,0-1.1-0.4-1.5
		c-0.3-0.5-0.8-0.9-1.4-1.1c-0.7-0.2-1.5-0.4-2.2-0.5L168.3,314.2L168.3,314.2z M185.2,307.5l1.4-0.1c-0.6,1.3-1,2.7-1.2,4.1
		c-0.3,1.6-0.4,3.2-0.3,4.8c0.1,1.5,0.3,3,0.6,4.4c0.3,1.3,0.7,2.5,1.2,3.7l-1.3,0.1c-0.5-1.2-0.9-2.4-1.2-3.6
		c-0.3-1.4-0.5-2.9-0.6-4.3c-0.1-1.6,0-3.2,0.2-4.8C184.4,310.4,184.7,309,185.2,307.5L185.2,307.5z M189.7,307.8l1.3-0.1l1,12.7
		l-1.3,0.1L189.7,307.8z M195.9,320l-2.5-12.5l0.3-0.1l10.3,7.9l-1.9-9.6l1.2-0.3l2.5,12.5l-0.3,0.1l-10.2-7.8l1.9,9.4L195.9,320
		L195.9,320z M209.7,316.9l3.8-1.4c1.2-0.4,2.3-1,3.3-1.9c0.7-0.8,1.1-1.7,1.3-2.7c0.2-1.2,0.1-2.4-0.4-3.5
		c-0.4-1.3-1.2-2.4-2.3-3.3c-1-0.8-2.2-1.2-3.5-1.2c-1.4,0.1-2.8,0.4-4.1,0.9l-2.5,0.9L209.7,316.9L209.7,316.9z M210.4,315.3
		l-3.4-9.7l0.8-0.3c1.2-0.5,2.5-0.8,3.8-1c1.1-0.1,2.1,0.2,3,0.9c0.9,0.7,1.6,1.6,1.9,2.7c0.4,1,0.5,2.1,0.2,3.1
		c-0.2,0.9-0.8,1.8-1.6,2.3c-1,0.7-2.2,1.2-3.4,1.5L210.4,315.3L210.4,315.3z M217.4,300.3l1.2-0.5l5.3,11.6l-1.2,0.5L217.4,300.3
		L217.4,300.3z M225.5,296.3l11.6,8l-1.2,0.7l-3.9-2.6l-4.7,2.8l0.4,4.6l-1.2,0.7l-1.2-14.1L225.5,296.3L225.5,296.3z M226.7,298.7
		l0.5,5.1l3.8-2.2L226.7,298.7L226.7,298.7z M242.5,304.9c-0.3-1.4-0.8-2.9-1.5-4.2c-0.7-1.4-1.5-2.8-2.5-4.1
		c-0.9-1.2-1.8-2.3-2.9-3.3c-0.9-0.9-1.9-1.7-3-2.3l-1.1,0.8c1.1,0.7,2.1,1.5,3.1,2.4c1.1,1,2.1,2.1,2.9,3.3c1,1.3,1.8,2.7,2.4,4.2
		c0.6,1.3,1,2.7,1.3,4.1L242.5,304.9z"/>
	<path class="st3" d="M99.6,269.7c2,0,3.7,1.6,3.7,3.7c0,2-1.6,3.7-3.7,3.7s-3.7-1.6-3.7-3.7C96,271.4,97.6,269.7,99.6,269.7z"/>
	<path class="st2" d="M99.6,277.3c-2.2,0-3.9-1.8-3.9-4c0-2.2,1.8-3.9,4-3.9s3.9,1.8,3.9,3.9C103.6,275.6,101.8,277.3,99.6,277.3
		C99.7,277.3,99.7,277.3,99.6,277.3z M99.6,270c-1.9,0-3.4,1.5-3.4,3.4s1.5,3.4,3.4,3.4s3.4-1.5,3.4-3.4S101.5,270,99.6,270
		L99.6,270z"/>
	<path class="st3" d="M259.2,269.7c2,0,3.7,1.6,3.7,3.7c0,2-1.6,3.7-3.7,3.7c-2,0-3.7-1.6-3.7-3.7
		C255.5,271.4,257.1,269.7,259.2,269.7L259.2,269.7z"/>
	<path class="st2" d="M259.2,277.3c-2.2,0-3.9-1.8-3.9-3.9c0-2.1,1.8-3.9,3.9-3.9c2.2,0,3.9,1.8,3.9,3.9
		C263.1,275.5,261.4,277.3,259.2,277.3z M259.2,270c-1.9,0-3.4,1.5-3.4,3.4s1.5,3.4,3.4,3.4s3.4-1.5,3.4-3.4S261.1,270,259.2,270
		L259.2,270z"/>
	<rect x="325.6" y="113.3" class="st5" width="60.5" height="60.5"/>
	<path class="st2" d="M387.2,174.8h-62.6v-62.5h62.6V174.8z M326.6,172.8h58.5v-58.5h-58.5V172.8z"/>
	<rect x="325.6" y="187.5" class="st5" width="60.5" height="60.5"/>
	<path class="st2" d="M387.2,249h-62.6v-62.5h62.6V249z M326.6,247h58.5v-58.5h-58.5V247z"/>
	<rect x="325.6" y="261.7" class="st5" width="60.5" height="60.5"/>
	<path class="st2" d="M387.2,323.3h-62.6v-62.5h62.6V323.3z M326.6,321.2h58.5v-58.5h-58.5V321.2z"/>
	<path class="st1" d="M405.4,164.7c2.5,1.1,5.3,1.6,8,1.6c2.2,0,4.4-0.3,6.5-1c4.1-1.3,7.7-3.9,10.1-7.5c1.3-2,2.3-4.2,2.9-6.5
		c0.7-2.7,1.1-5.4,1-8.2c0-3.1-0.5-6.1-1.4-9c-0.8-2.6-2.2-5-4-7.1c-1.7-2-3.9-3.6-6.2-4.6c-5.2-2.2-11.1-2.2-16.3,0
		c-2.5,1.1-4.7,2.7-6.5,4.7c-1.9,2.1-3.3,4.6-4.2,7.3c-1,3.1-1.6,6.3-1.5,9.5c0,3.1,0.5,6.2,1.4,9.1c0.9,2.6,2.3,5,4.1,7.1
		C400.9,162,403,163.6,405.4,164.7z M400.2,138.2c0.4-1.7,0.9-3.4,1.7-5c0.7-1.5,1.7-2.9,2.8-4c1.1-1.2,2.5-2.1,4-2.7
		c1.6-0.7,3.4-1,5.1-1c3.4-0.1,6.7,1.3,9,3.8c1.1,1.2,2.1,2.6,2.8,4.1c0.7,1.6,1.3,3.2,1.7,4.9c0.4,1.7,0.5,3.5,0.5,5.3
		c0,2.4-0.3,4.8-0.9,7.1c-0.6,2.1-1.5,4-2.7,5.8c-1.2,1.6-2.7,3-4.4,3.9c-1.9,1-3.9,1.5-6,1.4c-1.7,0-3.4-0.3-4.9-0.9
		c-1.5-0.6-2.8-1.5-3.9-2.6c-1.2-1.1-2.1-2.5-2.9-3.9c-0.8-1.5-1.4-3.2-1.7-4.9c-0.4-1.8-0.6-3.6-0.6-5.5
		C399.7,141.9,399.8,140,400.2,138.2z"/>
	<polygon class="st1" points="507.9,160.8 488.9,160.8 488.9,144.9 505.9,144.9 505.9,140.3 488.9,140.3 488.9,126.4 507,126.4 
		507,121.6 483.1,121.6 483.1,165.6 507.9,165.6 	"/>
	<path class="st1" d="M556,165.6h5.7v-18.7l14.7-25.2H570l-6.3,12.1c-0.9,1.7-1.7,3.2-2.4,4.7s-1.4,2.9-2,4.4h-0.1
		c-0.5-1-0.9-2-1.4-3l-1.4-2.9c-0.5-1-1-2-1.6-3.1l-6.2-12.1H542l14,25.3V165.6z"/>
	<path class="st1" d="M459.9,165.6l15.7-44h-6.1l-7.4,21.7c-1,2.9-1.9,5.7-2.8,8.4c-0.9,2.8-1.6,5.4-2.2,7.9H457
		c-0.6-2.6-1.3-5.2-2.2-7.9c-0.8-2.7-1.7-5.6-2.6-8.5l-6.9-21.7h-6.2l14.4,44L459.9,165.6z"/>
	<polygon class="st1" points="542.6,160.8 523.8,160.8 523.8,121.6 518,121.6 518,165.6 542.6,165.6 	"/>
	<rect x="561.3" y="195.4" class="st1" width="4.9" height="44"/>
	<path class="st1" d="M637,239.4v-44h-4.5v18.4c0,2.3,0,4.4,0,6.4s0.1,4,0.2,5.9s0.2,3.8,0.3,5.7l-0.2,0.1c-0.9-2.2-1.8-4.5-2.9-6.9
		c-1.1-2.3-2.3-4.8-3.7-7.4l-11.9-22.3H609v44h4.5v-18.8c0-2.4,0-4.7,0-6.7c0-2.1,0-4-0.1-5.9s-0.1-3.7-0.2-5.5l0.2-0.1
		c0.9,2.4,2,4.8,3.2,7.3s2.4,4.9,3.7,7.4l11.8,22.3h4.9V239.4z"/>
	<path class="st1" d="M400.3,220.3h4.5c1.3,0,2.5,0.3,3.6,1c1,0.7,1.9,1.6,2.4,2.7c0.7,1.5,1.2,3.2,1.4,4.9c0.5,2.8,1,5,1.4,6.8
		c0.2,1.3,0.6,2.5,1.1,3.7h5c-0.5-1.4-1-2.9-1.3-4.4c-0.5-2.1-1-4.6-1.6-7.7c-0.3-2-1-3.9-2-5.7c-0.8-1.4-2-2.5-3.4-3.2v-0.2
		c1.3-0.5,2.5-1.3,3.5-2.3c1.1-1.1,1.9-2.3,2.5-3.7c0.6-1.6,1-3.4,0.9-5.1c0-1.6-0.3-3.2-0.8-4.8c-0.5-1.3-1.2-2.6-2.2-3.6
		c-1.2-1.3-2.7-2.2-4.3-2.7c-2.1-0.7-4.3-1-6.5-0.9c-1.1,0-2.2,0.1-3.3,0.1c-1.1,0.1-2.2,0.2-3.2,0.3s-1.9,0.3-2.7,0.5v43.4h4.8
		v-19.1H400.3z M400.3,199.9c0.6-0.2,1.2-0.3,1.8-0.3c1-0.1,2-0.1,2.9-0.1c1.5,0,3.1,0.3,4.5,0.8c1.2,0.6,2.3,1.5,3,2.7
		c1.4,2.8,1.4,6.2,0.1,9c-0.7,1.2-1.7,2.2-2.9,2.9c-1.4,0.7-2.9,1.1-4.5,1h-4.9V199.9z"/>
	<path class="st1" d="M600,200.9c-1.4-1.9-3.2-3.5-5.3-4.6c-4.3-2.2-9.5-2.2-13.8,0c-2.1,1.1-4,2.7-5.5,4.7
		c-1.6,2.2-2.8,4.7-3.6,7.3c-0.9,3.1-1.3,6.3-1.3,9.5c0,3.1,0.4,6.1,1.2,9.1c0.7,2.5,1.9,4.9,3.4,7.1c1.4,1.9,3.2,3.5,5.3,4.6
		s4.4,1.6,6.8,1.6c1.9,0,3.7-0.3,5.4-1s3.4-1.6,4.7-2.9c1.5-1.3,2.8-2.9,3.7-4.7c1.1-2,2-4.2,2.5-6.5c0.6-2.7,0.9-5.4,0.9-8.2
		c0-3-0.4-6.1-1.2-9C602.7,205.4,601.5,203,600,200.9z M598.7,224.3c-0.5,2-1.2,4-2.3,5.8c-0.9,1.6-2.2,2.9-3.7,3.9
		s-3.3,1.5-5.1,1.4c-1.4,0-2.9-0.3-4.2-0.9c-1.3-0.6-2.4-1.5-3.3-2.6c-1-1.2-1.8-2.5-2.4-3.9c-0.7-1.6-1.2-3.2-1.5-4.9
		c-0.3-1.8-0.5-3.7-0.5-5.5c0-1.9,0.2-3.7,0.5-5.6c0.3-1.7,0.8-3.4,1.4-5c0.6-1.5,1.4-2.8,2.4-4c0.9-1.1,2.1-2,3.4-2.7
		c1.3-0.7,2.8-1,4.3-1s3,0.3,4.3,1s2.4,1.6,3.3,2.8c1,1.2,1.8,2.6,2.4,4.1c0.7,1.6,1.1,3.2,1.4,4.9c0.3,1.7,0.5,3.5,0.5,5.3
		C599.5,219.5,599.2,221.9,598.7,224.3L598.7,224.3z"/>
	<path class="st1" d="M671.9,239.4l-12.7-44h-5.7l-12.7,44h5l3.9-13.8h13.2l4,13.8H671.9z M650.6,221.1l3.6-12.7
		c0.4-1.4,0.7-2.7,1-4c0.3-1.4,0.6-2.7,0.9-3.9h0.1c0.3,1.3,0.6,2.6,0.9,3.9c0.3,1.3,0.7,2.7,1.1,4.1l3.7,12.7h-11.3V221.1z"/>
	<polygon class="st1" points="479.9,200.2 479.9,195.4 459.8,195.4 459.8,239.4 464.7,239.4 464.7,219.5 478.7,219.5 478.7,214.8 
		464.7,214.8 464.7,200.2 	"/>
	<path class="st1" d="M526.8,217.6c-1.6-1.3-3.4-2.4-5.2-3.2c-1.5-0.6-2.9-1.4-4.2-2.3c-1-0.7-1.8-1.6-2.4-2.7
		c-0.5-1.1-0.8-2.3-0.8-3.5c0-0.8,0.1-1.6,0.4-2.3c0.3-0.8,0.7-1.5,1.2-2.2c0.6-0.7,1.3-1.2,2.2-1.6c1-0.4,2.1-0.6,3.2-0.6
		c1,0,2.1,0.1,3.1,0.3c0.8,0.2,1.6,0.5,2.4,0.8c0.6,0.3,1.1,0.6,1.6,0.9l1.3-4.6c-0.6-0.4-1.3-0.8-2-1.1c-0.9-0.4-1.8-0.6-2.7-0.8
		c-1.1-0.2-2.3-0.3-3.4-0.3c-1.7,0-3.4,0.3-4.9,0.9c-2.9,1.1-5.1,3.4-6.2,6.3c-0.6,1.5-0.9,3.1-0.9,4.7c0,1.9,0.4,3.7,1.2,5.4
		c0.8,1.6,2,3,3.4,4.1c1.6,1.3,3.4,2.3,5.2,3.1c1.4,0.6,2.8,1.4,4.1,2.3c1,0.7,1.7,1.7,2.3,2.8c0.5,1.1,0.7,2.3,0.7,3.6
		c0,1.4-0.3,2.7-0.9,3.9c-0.6,1.1-1.5,2-2.6,2.6c-1.3,0.7-2.7,1-4.2,1c-1.6,0-3.2-0.3-4.7-0.8c-1.4-0.5-2.7-1.2-3.9-2l-1.3,4.8
		c0.8,0.6,1.6,1.1,2.6,1.4c2.2,0.9,4.6,1.4,6.9,1.4c2,0,3.9-0.3,5.7-1c1.5-0.6,2.9-1.6,4.1-2.8c1.1-1.2,1.9-2.6,2.4-4.1
		c0.5-1.6,0.8-3.2,0.8-4.8c0-1.9-0.3-3.8-1-5.6C529.2,220.2,528.2,218.7,526.8,217.6z"/>
	<path class="st1" d="M543.5,240.1c2,0,3.9-0.3,5.7-1c1.5-0.6,2.9-1.6,4.1-2.8c1.1-1.2,1.9-2.6,2.4-4.1c0.5-1.6,0.8-3.2,0.8-4.8
		c0-1.9-0.3-3.8-1-5.6c-0.7-1.6-1.8-3-3.1-4.2c-1.6-1.3-3.4-2.4-5.3-3.2c-1.5-0.6-2.9-1.4-4.2-2.3c-1-0.7-1.8-1.6-2.4-2.7
		c-0.5-1.1-0.8-2.3-0.8-3.5c0-0.8,0.1-1.6,0.4-2.3c0.3-0.8,0.7-1.5,1.2-2.2c0.6-0.7,1.3-1.2,2.2-1.6c1-0.4,2.1-0.6,3.2-0.6
		c1,0,2.1,0.1,3.1,0.3c0.8,0.2,1.6,0.5,2.4,0.8c0.6,0.3,1.1,0.6,1.6,0.9l1.3-4.6c-0.6-0.4-1.3-0.8-2-1.1c-0.9-0.4-1.8-0.6-2.7-0.8
		c-1.1-0.2-2.3-0.3-3.4-0.3c-1.7,0-3.4,0.3-4.9,0.9c-2.9,1.1-5.1,3.4-6.2,6.3c-0.6,1.5-0.9,3.1-0.9,4.7c0,1.9,0.4,3.7,1.2,5.4
		c0.8,1.6,2,3,3.4,4.1c1.6,1.3,3.4,2.3,5.2,3.1c1.4,0.6,2.8,1.4,4.1,2.3c1,0.7,1.7,1.7,2.3,2.8c0.5,1.1,0.7,2.3,0.7,3.6
		c0,1.4-0.3,2.7-0.9,3.9c-0.6,1.1-1.5,2-2.7,2.6c-1.3,0.7-2.7,1-4.2,1c-3.1,0-6.1-1-8.6-2.9l-1.3,4.8c0.8,0.6,1.6,1.1,2.6,1.4
		C538.8,239.5,541.1,240,543.5,240.1L543.5,240.1z"/>
	<polygon class="st1" points="696.3,234.6 680.5,234.6 680.5,195.4 675.6,195.4 675.6,239.4 696.3,239.4 	"/>
	<polygon class="st1" points="505.1,200.2 505.1,195.4 485,195.4 485,239.4 505.9,239.4 505.9,234.6 489.8,234.6 489.8,218.8 
		504.2,218.8 504.2,214.1 489.8,214.1 489.8,200.2 	"/>
	<path class="st1" d="M450.8,200.9c-1.4-1.9-3.2-3.5-5.3-4.6c-4.3-2.2-9.5-2.2-13.8,0c-2.1,1.1-4,2.7-5.5,4.7
		c-1.6,2.2-2.8,4.7-3.6,7.3c-0.9,3.1-1.3,6.3-1.3,9.5c0,3.1,0.4,6.1,1.2,9.1c0.7,2.5,1.9,4.9,3.4,7.1c1.4,1.9,3.2,3.5,5.3,4.6
		c2.1,1.1,4.4,1.6,6.8,1.6c1.9,0,3.7-0.3,5.4-1c1.7-0.7,3.3-1.6,4.7-2.9c1.5-1.3,2.8-2.9,3.7-4.7c1.1-2,2-4.2,2.5-6.5
		c0.6-2.7,0.9-5.4,0.9-8.2c0-3-0.4-6.1-1.2-9C453.5,205.4,452.4,203,450.8,200.9z M449.5,224.3c-0.5,2-1.2,4-2.3,5.8
		c-0.9,1.6-2.2,2.9-3.7,3.9c-2.8,1.7-6.3,1.9-9.2,0.5c-1.3-0.6-2.4-1.5-3.3-2.6c-1-1.2-1.8-2.5-2.4-3.9c-0.7-1.6-1.2-3.2-1.5-4.9
		c-0.3-1.8-0.5-3.7-0.5-5.5c0-1.9,0.2-3.7,0.5-5.6c0.3-1.7,0.8-3.4,1.4-5c0.6-1.5,1.4-2.8,2.4-4c0.9-1.1,2.1-2,3.4-2.7s2.8-1,4.3-1
		s3,0.3,4.3,1s2.4,1.6,3.3,2.8c1,1.2,1.8,2.6,2.4,4.1c0.7,1.6,1.1,3.2,1.4,4.9C450.6,216,450.5,220.2,449.5,224.3L449.5,224.3z"/>
	<path class="st1" d="M479.9,290.9c-1,2.9-2,5.7-2.8,8.4c-0.8,2.7-1.6,5.4-2.2,7.9h-0.1c-0.6-2.6-1.3-5.2-2.2-7.9s-1.7-5.6-2.6-8.5
		l-6.9-21.7h-6.2l14.5,43.9h6.3l15.7-44h-6.1L479.9,290.9z"/>
	<polygon class="st1" points="625.5,274 638.8,274 638.8,313.2 644.6,313.2 644.6,274 658,274 658,269.2 625.5,269.2 	"/>
	<path class="st1" d="M692.1,269.2l-6.3,12.1c-0.9,1.7-1.7,3.2-2.4,4.7c-0.8,1.5-1.4,2.9-2,4.4h-0.1c-0.5-1-0.9-2-1.4-3l-1.4-2.9
		c-0.5-1-1-2-1.6-3.1l-6.2-12.1h-6.5l14,25.3v18.7h5.7v-18.8l14.7-25.2h-6.5V269.2z"/>
	<path class="st1" d="M562.5,301.1c-0.4-2-1.2-4-2.3-5.7c-1-1.5-2.4-2.6-4.1-3.2V292c1.5-0.5,2.9-1.3,4.2-2.3c1.2-1,2.2-2.3,2.9-3.7
		c0.8-1.6,1.1-3.3,1.1-5.1c0-1.6-0.3-3.3-0.9-4.8c-0.6-1.4-1.4-2.6-2.5-3.6c-1.5-1.3-3.2-2.2-5.1-2.7c-2.5-0.7-5.1-1-7.6-0.9
		c-1.3,0-2.6,0.1-3.9,0.1c-1.3,0.1-2.6,0.2-3.8,0.3s-2.3,0.3-3.2,0.5v43.4h5.7v-19.1h5.4c1.5,0,3,0.3,4.3,1c1.2,0.6,2.2,1.6,2.9,2.7
		c0.8,1.5,1.4,3.2,1.7,4.9c0.6,2.8,1.1,5,1.6,6.8c0.3,1.3,0.7,2.5,1.3,3.7h5.9c-0.6-1.4-1.1-2.9-1.5-4.4
		C563.8,306.7,563.2,304.2,562.5,301.1z M554,288.8c-1.7,0.7-3.5,1.1-5.3,1h-5.8v-16.1c0.7-0.2,1.4-0.3,2.2-0.3
		c1-0.1,2.1-0.1,3.5-0.1c1.8,0,3.6,0.3,5.3,0.9c1.4,0.5,2.6,1.4,3.5,2.7c2.5,3.7,1.6,8.7-2.1,11.3
		C554.8,288.3,554.4,288.6,554,288.8L554,288.8z"/>
	<path class="st1" d="M595.2,291.4c-1.9-1.3-4-2.4-6.2-3.2c-1.7-0.6-3.4-1.4-5-2.3c-1.1-0.7-2.1-1.6-2.9-2.7
		c-0.6-1.1-0.9-2.3-0.9-3.5c0-0.8,0.2-1.6,0.4-2.3c0.3-0.8,0.8-1.5,1.4-2.2c0.7-0.7,1.6-1.2,2.6-1.6c1.2-0.4,2.5-0.6,3.8-0.6
		c1.2,0,2.4,0.1,3.6,0.3c1,0.2,1.9,0.5,2.8,0.8c0.6,0.3,1.3,0.6,1.9,0.9l1.6-4.6c-0.7-0.4-1.5-0.8-2.4-1.1c-1.1-0.4-2.1-0.6-3.2-0.8
		c-1.3-0.2-2.7-0.3-4.1-0.3c-2,0-4,0.3-5.8,0.9c-1.6,0.5-3.2,1.4-4.5,2.5c-1.2,1-2.2,2.3-2.9,3.8s-1,3.1-1,4.7
		c0,1.9,0.5,3.8,1.4,5.4c1,1.6,2.4,3,4,4.1c1.9,1.3,4,2.3,6.2,3c1.7,0.6,3.3,1.4,4.8,2.3c1.1,0.7,2,1.7,2.7,2.8
		c0.6,1.1,0.9,2.3,0.8,3.6c0,1.4-0.4,2.7-1.1,3.9c-0.8,1.2-1.9,2.1-3.1,2.6c-1.6,0.7-3.3,1-5,1c-1.9,0-3.8-0.3-5.6-0.8
		c-1.6-0.5-3.1-1.2-4.5-2l-1.5,4.8c0.9,0.6,2,1.1,3,1.4c1.3,0.5,2.6,0.8,3.9,1c1.4,0.3,2.9,0.4,4.3,0.4c2.3,0,4.6-0.3,6.8-1
		c1.8-0.6,3.4-1.5,4.8-2.8c1.2-1.1,2.2-2.5,2.8-4.1c0.6-1.5,0.9-3.2,0.9-4.8C600.3,297.3,598.4,293.6,595.2,291.4L595.2,291.4z"/>
	<polygon class="st1" points="507.3,292.6 524.3,292.6 524.3,287.9 507.3,287.9 507.3,274 525.4,274 525.4,269.2 501.6,269.2 
		501.6,313.2 526.4,313.2 526.4,308.4 507.3,308.4 	"/>
	<path class="st1" d="M423.9,287.6c0,2.3,0,4.4,0.1,6.4c0,2,0.1,4,0.2,5.9s0.2,3.8,0.4,5.7l-0.2,0.1c-1-2.2-2.2-4.5-3.5-6.9
		c-1.3-2.3-2.8-4.8-4.4-7.4l-14-22.3h-6.3v44h5.4v-18.8c0-2.4,0-4.7,0-6.7c0-2.1,0-4-0.1-5.9s-0.1-3.7-0.2-5.5l0.2-0.1
		c1.1,2.4,2.3,4.8,3.7,7.3c1.4,2.5,2.9,4.9,4.4,7.4l14,22.3h5.7v-44H424L423.9,287.6z"/>
	<rect x="442.6" y="269.2" class="st1" width="5.7" height="44"/>
	<rect x="611.4" y="269.2" class="st1" width="5.7" height="44"/>
	<path class="st3" d="M340.7,163.3h24.5v-4.5h-18.8v-37.2h-5.7V163.3L340.7,163.3z M340.7,237.6h5.7v-16.7c0.7,0.2,1.4,0.3,2.2,0.3
		c0.8,0.1,1.6,0.1,2.4,0.1c1.8,0,3.5-0.2,5.3-0.5c1.6-0.3,3.1-0.8,4.6-1.5c1.3-0.6,2.5-1.5,3.6-2.5c1.1-1.1,2-2.4,2.5-3.9
		c0.6-1.6,0.9-3.3,0.9-5s-0.3-3.4-1-5c-0.7-1.4-1.6-2.7-2.8-3.7c-1.5-1.2-3.2-2.1-5-2.6c-2.4-0.6-4.8-0.9-7.3-0.9
		c-2.3,0-4.3,0.1-6.1,0.2c-1.8,0.2-3.4,0.3-4.8,0.6L340.7,237.6L340.7,237.6z M346.4,200.3c0.7-0.2,1.4-0.3,2.1-0.3
		c0.9-0.1,2-0.1,3.2-0.1c1.8,0,3.7,0.3,5.4,0.9c1.4,0.5,2.7,1.5,3.6,2.7c0.9,1.4,1.4,3,1.4,4.6c0,1.7-0.4,3.4-1.3,4.8
		c-0.9,1.4-2.3,2.4-3.8,3c-1.9,0.7-3.9,1.1-5.9,1c-0.9,0-1.8,0-2.6-0.1c-0.7-0.1-1.4-0.2-2.1-0.3L346.4,200.3L346.4,200.3z
		 M340.7,270.2v24.5c-0.1,2.8,0.4,5.6,1.2,8.3c0.7,2.1,1.8,4,3.3,5.5c1.4,1.4,3.1,2.5,5,3.1c2,0.7,4.1,1,6.3,1c2.2,0,4.5-0.3,6.6-1
		c2-0.7,3.8-1.7,5.3-3.2c1.6-1.6,2.8-3.5,3.5-5.6c0.9-2.6,1.3-5.4,1.3-8.2v-24.4h-5.7v24.7c0.1,2.6-0.4,5.1-1.3,7.5
		c-0.8,1.8-2.1,3.3-3.7,4.3c-1.7,1-3.7,1.5-5.6,1.4c-1.8,0.1-3.7-0.4-5.3-1.4c-1.6-1-2.9-2.5-3.6-4.3c-1-2.4-1.4-5-1.4-7.5v-24.7
		H340.7z"/>
	<rect x="59.3" y="96.5" class="st5" width="644.4" height="6.2"/>
	<path class="st2" d="M704.6,103.6H58.5v-7.9h646.1V103.6z M60.2,101.9h642.7v-4.5H60.2V101.9z"/>
	<rect x="59.3" y="339.2" class="st5" width="644.4" height="6.2"/>
	<path class="st2" d="M704.6,346.2H58.5v-7.9h646.1V346.2z M60.2,344.5h642.7V340H60.2V344.5z"/>
</g>
</svg>
